<?xml version="1.0" standalone="no"?>
<!DOCTYPE svg PUBLIC "-//W3C//DTD SVG 1.1//EN" "http://www.w3.org/Graphics/SVG/1.1/DTD/svg11.dtd" >
<svg xmlns="http://www.w3.org/2000/svg" xmlns:xlink="http://www.w3.org/1999/xlink" version="1.1">
<metadata>
Created by FontForge 20161116 at Thu Nov 17 18:12:42 2011
 By Jimmy Wärting
Copyright (c) 2011 by vernon adams. All rights reserved.
</metadata>
<defs>
<font id="OswaldStencil-Bold" horiz-adv-x="1198" >
  <font-face 
    font-family="Oswald Stencil"
    font-weight="700"
    font-stretch="normal"
    units-per-em="2048"
    panose-1="2 0 5 6 0 0 0 2 0 4"
    ascent="1638"
    descent="-410"
    x-height="1782"
    cap-height="1782"
    bbox="-211 -613 2565 2363"
    underline-thickness="90"
    underline-position="-182"
    unicode-range="U+000D-F6C3"
  />
<missing-glyph horiz-adv-x="757" 
d="M232 106h296v1156h-296v-1156zM105 -2v1370h551v-1370h-551z" />
    <glyph glyph-name=".notdef" horiz-adv-x="757" 
d="M232 106h296v1156h-296v-1156zM105 -2v1370h551v-1370h-551z" />
    <glyph glyph-name="space" unicode=" " horiz-adv-x="290" 
 />
    <glyph glyph-name="space" unicode="&#xa0;" horiz-adv-x="290" 
 />
    <glyph glyph-name="exclam" unicode="!" horiz-adv-x="504" 
d="M199 445l-99 1336h310l-109 -1336h-102zM105 0v286h292v-286h-292z" />
    <glyph glyph-name="quotedbl" unicode="&#x22;" horiz-adv-x="744" 
d="M135 1248l-81 534h266c-6 -35 -7 -500 -12 -534h-173zM431 1248v534h259c-6 -35 -85 -500 -91 -534h-168z" />
    <glyph glyph-name="numbersign" unicode="#" horiz-adv-x="1121" 
d="M123 0l110 626h-145v226h180l28 142h-197v223h233l98 566h195l-99 -566h149l99 566h194l-99 -566h140v-223h-176l-27 -142h192v-226h-229l-110 -626h-193l110 626h-151l-110 -626h-192zM462 852h150l27 142h-150z" />
    <glyph glyph-name="dollar" unicode="$" horiz-adv-x="1101" 
d="M510 1459v431h97v-186c230 -14 402 -177 411 -404c1 -1 0 -39 1 -40l-318 -48c1 14 2 36 2 59c-6 92 -41 192 -150 192c-15 0 -30 -2 -43 -4zM607 302v-410h-97v164c-292 27 -416 234 -424 485l313 62c0 -105 14 -304 175 -304c12 0 23 1 33 3zM657 60v258
c42 24 57 71 57 130c0 120 -103 196 -215 284l-153 120c-132 104 -260 223 -260 423c0 236 150 386 374 422v-257c-43 -26 -63 -73 -63 -126c0 -101 63 -167 149 -233l159 -122c191 -146 320 -264 320 -503c0 -219 -159 -367 -368 -396z" />
    <glyph glyph-name="percent" unicode="%" horiz-adv-x="1866" 
d="M561 0l571 1810h167l-572 -1810h-166zM1459 794v187c240 -12 325 -190 325 -456v-60c0 -261 -83 -457 -325 -470l-1 186c80 20 91 137 91 285v55c0 148 -8 255 -90 273zM1408 181v-186c-242 13 -324 209 -324 470v60c0 265 83 444 324 456l1 -186
c-82 -17 -93 -125 -93 -273v-56c0 -148 13 -265 92 -285zM459 1596v187c240 -12 325 -190 325 -456v-60c0 -261 -83 -457 -325 -470l-1 186c80 20 91 137 91 285v55c0 148 -8 255 -90 273zM408 983v-186c-242 13 -324 209 -324 470v60c0 265 83 444 324 456l1 -186
c-82 -17 -93 -125 -93 -273v-56c0 -148 13 -265 92 -285z" />
    <glyph glyph-name="ampersand" unicode="&#x26;" horiz-adv-x="1177" 
d="M306 892l170 210c83 103 159 208 159 330c0 67 -25 144 -97 158v222c207 -16 344 -156 344 -368c0 -220 -140 -390 -293 -581l-169 -211c-54 -68 -92 -176 -92 -271c0 -84 29 -158 102 -185v-225c-240 8 -364 181 -364 398c0 197 110 362 240 523zM797 124
c-80 -97 -194 -148 -319 -153v223c64 5 115 49 158 102l348 429l168 -167l-199 -244l145 -188l-181 -161zM453 1155l-171 -211c-71 149 -147 345 -147 476c0 219 128 390 354 394v-225c-72 -17 -85 -111 -85 -171c0 -91 13 -171 49 -263zM781 554l-173 -213
c-55 89 -130 208 -162 265l172 210z" />
    <glyph glyph-name="quoteright" unicode="&#x2019;" horiz-adv-x="524" 
d="M188 1282l-71 144c68 6 130 47 133 112h-128v271h271c0 -56 3 -117 3 -178c0 -177 -24 -347 -208 -349z" />
    <glyph glyph-name="parenleft" unicode="(" horiz-adv-x="660" 
d="M616 138v-202c-457 0 -469 556 -469 912c0 334 -40 1032 469 1032v-202c-193 0 -214 -349 -214 -594c0 -67 2 -126 2 -167c0 -44 -2 -111 -2 -186c0 -250 22 -593 214 -593z" />
    <glyph glyph-name="parenright" unicode=")" horiz-adv-x="662" 
d="M89 -64v202c192 0 214 343 214 593c0 75 -2 142 -2 186c0 40 1 97 1 162c0 246 -20 599 -213 599v202c459 0 470 -565 470 -921c0 -336 34 -1023 -470 -1023z" />
    <glyph glyph-name="asterisk" unicode="*" horiz-adv-x="879" 
d="M605 870l-134 234l-144 -234l-171 102l164 234l-249 96l66 173l229 -119l-25 273h250l-25 -273l229 119l66 -173l-249 -96l164 -234z" />
    <glyph glyph-name="plus" unicode="+" horiz-adv-x="737" 
d="M57 607v148h176v176h186v-176h179v-148h-179v-176h-186v176h-176z" />
    <glyph glyph-name="comma" unicode="," horiz-adv-x="451" 
d="M155 -247l-38 142c77 7 86 28 87 104h-114v287h292v-146c0 -227 -14 -389 -189 -389c-12 0 -25 0 -38 2z" />
    <glyph glyph-name="hyphen" unicode="-" horiz-adv-x="452" 
d="M29 452v199h394v-199h-394z" />
    <glyph glyph-name="period" unicode="." horiz-adv-x="494" 
d="M103 0v286h293v-286h-293z" />
    <glyph glyph-name="slash" unicode="/" horiz-adv-x="841" 
d="M64 0l572 1810h172l-573 -1810h-171z" />
    <glyph glyph-name="zero" unicode="0" horiz-adv-x="1125" 
d="M542 232v-265c-316 9 -447 260 -447 555v736c0 301 126 547 447 556v-266c-126 -15 -140 -172 -140 -282v-752c0 -108 20 -267 140 -282zM592 -32v266c113 22 134 174 134 280v752c0 108 -17 260 -134 281v266c314 -13 439 -257 439 -555v-736
c0 -290 -134 -539 -439 -554z" />
    <glyph glyph-name="one" unicode="1" horiz-adv-x="644" 
d="M177 1671l1 -318l-176 -17v238c61 26 122 55 175 97zM227 0l-1 1694c30 22 49 49 72 89h230v-1783h-301z" />
    <glyph glyph-name="two" unicode="2" horiz-adv-x="1045" 
d="M471 332l-245 -332h-179v219l468 685c81 118 169 272 169 420c0 98 -37 210 -131 226v265c282 -10 434 -201 434 -491c0 -195 -97 -381 -209 -538c-77 -119 -232 -345 -307 -454zM504 1815v-265c-143 -24 -138 -257 -138 -375h-302v93c0 310 122 536 440 547zM289 0
l218 296h475v-296h-693z" />
    <glyph glyph-name="three" unicode="3" horiz-adv-x="1065" 
d="M506 1815v-265c-120 -22 -131 -189 -133 -312h-303v95c0 278 146 470 436 482zM506 234v-267c-335 11 -430 239 -436 526v53h303c1 -130 11 -291 133 -312zM556 -33v266c120 13 134 148 134 281c0 174 -74 288 -249 288v301c160 0 249 42 249 230c0 115 -29 206 -134 218
v265c290 -9 440 -205 440 -484c0 -161 -69 -313 -194 -382c128 -86 194 -242 194 -435c0 -307 -116 -537 -440 -548z" />
    <glyph glyph-name="four" unicode="4" horiz-adv-x="1056" 
d="M558 1176l215 606h87v-1782h-302v1176zM508 696v-243h-448v243l430 1086h230l-386 -1086h174zM910 453v243h118v-243h-118z" />
    <glyph glyph-name="five" unicode="5" horiz-adv-x="1093" 
d="M473 1490v292h485v-292h-485zM473 869v254c46 24 96 38 150 38c315 0 403 -262 403 -547c0 -322 -83 -637 -443 -647v259c139 25 145 236 145 391c0 142 -22 294 -157 294c-36 0 -70 -17 -98 -42zM146 1782h277v-1011h-277v1011zM533 224v-256c-327 17 -419 262 -419 572
l303 2c0 -185 14 -305 116 -318z" />
    <glyph glyph-name="six" unicode="6" horiz-adv-x="1090" 
d="M401 1196v-673c0 -132 26 -271 133 -289v-263c-314 13 -439 282 -439 566v666c0 289 96 597 439 611v-265c-113 -19 -133 -200 -133 -353zM451 817v254c50 21 107 31 164 31c322 0 411 -248 411 -536c0 -296 -120 -579 -442 -594v262c125 19 137 196 137 324
c0 141 -20 290 -161 290c-39 0 -78 -12 -109 -31zM584 1548v266c278 -13 410 -230 410 -498v-31h-295c-1 123 -22 242 -115 263z" />
    <glyph glyph-name="seven" unicode="7" horiz-adv-x="805" 
d="M483 1782l-56 -266h-396v266h452zM154 0l380 1782h248v-165l-355 -1617h-273z" />
    <glyph glyph-name="eight" unicode="8" horiz-adv-x="1094" 
d="M530 217v-247c-328 10 -439 232 -439 543c0 195 45 337 172 430c-105 87 -155 230 -155 389c0 277 133 474 422 484v-243c-94 -15 -118 -120 -118 -217c0 -117 13 -276 118 -301v-244c-120 -24 -142 -189 -142 -314c0 -133 16 -266 142 -280zM580 -30v247
c125 15 143 148 143 280c0 125 -20 291 -143 314v244c107 23 119 184 119 301c0 95 -23 202 -119 217v243c290 -10 421 -207 421 -484c0 -159 -47 -302 -154 -389c126 -93 174 -234 174 -430c0 -311 -113 -532 -441 -543z" />
    <glyph glyph-name="nine" unicode="9" horiz-adv-x="1108" 
d="M713 1259c0 131 -26 268 -130 289v266c310 -16 435 -302 435 -598v-606c0 -303 -93 -621 -435 -638v262c124 25 130 253 130 389v636zM663 963v-254c-49 -18 -102 -27 -159 -27c-326 0 -417 248 -417 535c0 296 122 585 446 598v-265c-125 -17 -140 -189 -140 -320
c0 -138 17 -298 159 -298c38 0 79 12 111 31zM533 234v-263c-289 10 -415 226 -422 497v29h296c2 -125 20 -247 126 -263z" />
    <glyph glyph-name="colon" unicode=":" horiz-adv-x="497" 
d="M105 878v286h290v-286h-290zM105 179v284h290v-284h-290z" />
    <glyph glyph-name="semicolon" unicode=";" horiz-adv-x="490" 
d="M95 878v286h291v-286h-291zM158 -74l-37 141c77 8 86 29 87 105h-114v287h292v-137c0 -233 -12 -398 -189 -398c-12 0 -25 0 -39 2z" />
    <glyph glyph-name="less" unicode="&#x3c;" horiz-adv-x="834" 
d="M74 518v261l653 456v-264l-452 -321c160 -116 292 -209 452 -324v-264s-621 433 -653 456z" />
    <glyph glyph-name="equal" unicode="=" horiz-adv-x="759" 
d="M83 581v199h588v-199h-588zM83 257v198h588v-198h-588z" />
    <glyph glyph-name="greater" unicode="&#x3e;" horiz-adv-x="834" 
d="M112 62v264l451 324c-45 32 -406 289 -451 321v265s620 -435 652 -457v-261z" />
    <glyph glyph-name="question" unicode="?" horiz-adv-x="950" 
d="M449 1815v-257c-79 -14 -124 -90 -124 -190c0 -31 5 -97 14 -128l-273 -46c-15 56 -23 144 -23 195c0 243 139 416 406 426zM499 1558v257c257 -10 421 -165 421 -447c0 -315 -362 -534 -362 -763v-71h-290v97c0 299 360 469 360 752c0 109 -52 165 -129 175zM263 0v292
h300v-292h-300z" />
    <glyph glyph-name="at" unicode="@" horiz-adv-x="1662" 
d="M1253 330v217c66 29 82 168 82 264c0 368 -113 590 -430 616v201c451 -26 687 -335 687 -815c0 -253 -110 -470 -339 -483zM1203 544v-215c-64 1 -157 7 -225 65l-73 182v665h255v-583v-22c0 -37 3 -82 43 -92zM885 110v-201c-561 16 -804 312 -804 899
c0 497 293 822 773 822v-200c-317 0 -517 -225 -517 -623c0 -437 154 -679 548 -697zM855 1226v-182c-4 1 -8 1 -12 1c-124 0 -126 -179 -126 -291c0 -100 15 -212 106 -212c11 0 21 2 31 5l81 -192c-49 -20 -106 -26 -155 -26c-223 0 -319 228 -319 414
c0 222 73 506 301 506c30 0 65 -8 93 -23z" />
    <glyph glyph-name="A" unicode="A" horiz-adv-x="1100" 
d="M572 1135l-117 647h242l378 -1782h-305zM403 1782l121 -668l-86 -530h182l27 -185h-232l-77 -399h-313z" />
    <glyph glyph-name="B" unicode="B" horiz-adv-x="1115" 
d="M482 856v211h51c142 0 175 121 175 263c0 207 -78 237 -216 237h-10v215h4c308 0 516 -108 516 -458c0 -180 -85 -291 -253 -351c220 -59 298 -239 298 -446c0 -343 -147 -527 -497 -527h-68v226h38c189 0 219 112 219 320c0 177 -46 310 -218 310h-39zM432 0h-316v1782
h316v-1782z" />
    <glyph glyph-name="C" unicode="C" horiz-adv-x="1152" 
d="M620 -33v247c127 18 148 174 148 321v170h309v-137c-4 -309 -103 -588 -457 -601zM620 1567v248c339 -12 457 -257 457 -583v-136h-310v152c0 142 -18 301 -147 319zM570 1815v-247c-136 -15 -162 -161 -162 -288v-779c0 -127 26 -273 162 -288v-246
c-367 12 -478 284 -478 611v624c0 334 112 601 478 613z" />
    <glyph glyph-name="D" unicode="D" horiz-adv-x="1148" 
d="M482 0v225h9c195 0 248 45 248 212v925c0 142 -74 193 -243 194h-14v226h12c449 0 562 -186 562 -567v-615c0 -388 -86 -600 -565 -600h-9zM432 0h-316v1782h316v-1782z" />
    <glyph glyph-name="E" unicode="E" horiz-adv-x="871" 
d="M432 0h-316v1782h316v-1782zM482 0v221h351v-221h-351zM482 1561v221h351v-221h-351zM482 810v225h235v-225h-235z" />
    <glyph glyph-name="F" unicode="F" horiz-adv-x="842" 
d="M432 0h-316v1782h316v-1782zM482 1561v221h351v-221h-351zM482 810v225h235v-225h-235z" />
    <glyph glyph-name="G" unicode="G" horiz-adv-x="1211" 
d="M628 1568v247c354 -10 471 -263 471 -594v-85h-305v100c0 146 -13 316 -166 332zM623 -25v238c144 12 171 165 171 284v177h-129v229h445v-903h-209l-46 135c-46 -81 -135 -139 -232 -160zM574 214v-246c-9 -1 -17 -1 -26 -1c-356 0 -456 325 -456 578v655
c0 333 114 601 486 614v-247c-138 -17 -170 -159 -170 -282v-795c0 -120 28 -258 166 -276z" />
    <glyph glyph-name="H" unicode="H" horiz-adv-x="1187" 
d="M753 1782h319v-1782h-319v810h-271v202h271v770zM433 1782l-1 -1782h-316v1782h317z" />
    <glyph glyph-name="I" unicode="I" horiz-adv-x="548" 
d="M115 0v1782h317v-1782h-317z" />
    <glyph glyph-name="J" unicode="J" horiz-adv-x="612" 
d="M3 -26v224c146 0 178 28 178 231v1353h316v-1355c0 -304 -57 -453 -398 -453h-96z" />
    <glyph glyph-name="K" unicode="K" horiz-adv-x="1147" 
d="M482 857v237l272 688h351l-364 -801l403 -981h-329zM432 0h-316v1782h316v-1782z" />
    <glyph glyph-name="L" unicode="L" horiz-adv-x="837" 
d="M432 0h-316v1782h316v-1782zM482 0v221h336v-221h-336z" />
    <glyph glyph-name="M" unicode="M" horiz-adv-x="1518" 
d="M429 1781l441 -1781h-215l-244 871v910h18zM887 141l-103 421l302 1219h21v-910zM361 0h-245v1782h245v-1782zM1402 0h-245v1782h245v-1782z" />
    <glyph glyph-name="N" unicode="N" horiz-adv-x="1183" 
d="M116 1783h229l43 -104v-1679h-272v1783zM846 0l-42 105v1678h263v-1783h-221zM438 949v609l316 -690v-637z" />
    <glyph glyph-name="O" unicode="O" 
d="M573 1815v-247c-136 -15 -165 -161 -165 -288v-780c0 -127 28 -272 165 -287v-246c-364 11 -481 277 -481 604v631c0 334 115 601 481 613zM623 1568v247c366 -12 483 -278 483 -613v-624c0 -327 -116 -599 -483 -611v246c138 15 166 158 166 287v780
c0 128 -29 273 -166 288z" />
    <glyph glyph-name="P" unicode="P" horiz-adv-x="1028" 
d="M432 1782v-1782h-316v1782h316zM482 1554v228h66c320 0 439 -197 439 -499c0 -375 -170 -513 -493 -514h-12v227h26c162 0 177 93 177 292c0 163 -18 266 -253 266h50z" />
    <glyph glyph-name="Q" unicode="Q" horiz-adv-x="1205" 
d="M575 214v-249c-345 11 -483 265 -483 606v631c0 335 117 601 483 613v-248c-135 -17 -167 -160 -167 -287v-779c0 -128 32 -270 167 -287zM625 -35v248c145 11 170 156 170 288v779c0 130 -30 275 -170 288v247c370 -9 486 -276 486 -613v-624c0 -202 -50 -406 -211 -532
c37 -64 152 -75 184 -78v-197c-216 4 -317 112 -379 202c-26 -4 -54 -7 -80 -8z" />
    <glyph glyph-name="R" unicode="R" horiz-adv-x="1119" 
d="M482 831v200h99c135 0 158 174 158 262c0 90 -20 255 -144 255h-113v234h44c337 0 528 -142 528 -467c0 -162 -9 -346 -224 -441l253 -874h-323l-207 831h-71zM432 0h-316v1782h316v-1782z" />
    <glyph glyph-name="S" unicode="S" horiz-adv-x="1054" 
d="M557 1569v247c245 -5 428 -194 438 -443v-37l-321 -50c0 18 2 39 2 60c-5 91 -34 200 -119 223zM520 214v-248c-303 16 -440 264 -458 527l317 64c5 -149 30 -313 141 -343zM614 1037l-213 -213l-72 68c-133 117 -265 243 -265 473c0 267 179 434 443 450v-243
c-89 -9 -132 -85 -132 -173c0 -121 66 -205 151 -280c19 -17 54 -50 88 -82zM437 791l212 211l37 -33c174 -161 315 -324 315 -584c0 -250 -194 -412 -431 -420v244c91 6 124 73 124 163c0 149 -108 281 -217 382z" />
    <glyph glyph-name="T" unicode="T" horiz-adv-x="884" 
d="M285 1494h317v-1494h-317v1494zM5 1544v238h874v-238h-874z" />
    <glyph glyph-name="U" unicode="U" horiz-adv-x="1223" 
d="M639 -33v245c155 9 162 136 162 403v1167h316v-1168c0 -337 -64 -638 -478 -647zM589 213v-246c-412 11 -483 312 -483 647v1168h317v-1167c0 -261 20 -387 166 -402z" />
    <glyph glyph-name="V" unicode="V" horiz-adv-x="1053" 
d="M498 747l-130 -747l-341 1782h304zM419 0l306 1782h301l-356 -1782h-251z" />
    <glyph glyph-name="W" unicode="W" horiz-adv-x="1475" 
d="M1185 0l-129 850l114 932h273zM418 851l133 -851h-259l-260 1782h273zM900 0l-278 1782h240l141 -932l133 -850h-236zM591 1649l109 -685l-114 -867l-117 755z" />
    <glyph glyph-name="X" unicode="X" horiz-adv-x="1078" 
d="M313 864l156 -394l-167 -470h-297zM708 0l-704 1782h332l706 -1782h-334zM724 940l-160 401l140 441h303z" />
    <glyph glyph-name="Y" unicode="Y" horiz-adv-x="1002" 
d="M654 339v-339h-308v581l-344 1201h291zM654 546l-125 506l125 730h346z" />
    <glyph glyph-name="Z" unicode="Z" horiz-adv-x="975" 
d="M357 0l84 221h452v-221h-536zM611 1782l-84 -222h-393v222h477zM77 219l588 1563h228v-210l-589 -1572h-227v219z" />
    <glyph glyph-name="bracketleft" unicode="[" horiz-adv-x="715" 
d="M412 1878v-1942h-257v1942h257zM462 -64v141h191v-141h-191zM462 1738v140h191v-140h-191z" />
    <glyph glyph-name="backslash" unicode="\" horiz-adv-x="631" 
d="M327 0l-277 1816h256l277 -1816h-256z" />
    <glyph glyph-name="bracketright" unicode="]" horiz-adv-x="678" 
d="M303 -64v1903h233v-1903h-233zM252 1839v-118h-187v118h187zM252 54v-118h-187v118h187z" />
    <glyph glyph-name="asciicircum" unicode="^" horiz-adv-x="912" 
d="M325 905h-265c15 28 261 560 261 560h131v-204zM894 905h-265l-127 356v204h131s246 -532 261 -560z" />
    <glyph glyph-name="underscore" unicode="_" horiz-adv-x="848" 
d="M30 0v199h782v-199h-782z" />
    <glyph glyph-name="quoteleft" unicode="&#x2018;" horiz-adv-x="527" 
d="M396 1288h-272c0 56 -3 117 -3 177c0 178 24 347 208 349l71 -143c-67 -7 -130 -49 -132 -113h128v-270z" />
    <glyph glyph-name="a" unicode="a" horiz-adv-x="1100" 
d="M645 1782l-117 -647l-198 -1135h-305l378 1782h242zM576 1114l121 668l378 -1782h-313l-77 399h-232l27 185h182z" />
    <glyph glyph-name="b" unicode="b" horiz-adv-x="1115" 
d="M482 856v211h51c142 0 175 121 175 263c0 207 -78 237 -216 237h-10v215h4c308 0 516 -108 516 -458c0 -180 -85 -291 -253 -351c220 -59 298 -239 298 -446c0 -343 -147 -527 -497 -527h-68v226h38c189 0 219 112 219 320c0 177 -46 310 -218 310h-39zM432 0h-316v1782
h316v-1782z" />
    <glyph glyph-name="c" unicode="c" horiz-adv-x="1152" 
d="M620 -33v247c127 18 148 174 148 321v170h309v-137c-4 -309 -103 -588 -457 -601zM620 1567v248c339 -12 457 -257 457 -583v-136h-310v152c0 142 -18 301 -147 319zM570 1815v-247c-136 -15 -162 -161 -162 -288v-779c0 -127 26 -273 162 -288v-246
c-367 12 -478 284 -478 611v624c0 334 112 601 478 613z" />
    <glyph glyph-name="d" unicode="d" horiz-adv-x="1148" 
d="M482 0v225h9c195 0 248 45 248 212v925c0 142 -74 193 -243 194h-14v226h12c449 0 562 -186 562 -567v-615c0 -388 -86 -600 -565 -600h-9zM432 0h-316v1782h316v-1782z" />
    <glyph glyph-name="e" unicode="e" horiz-adv-x="871" 
d="M432 0h-316v1782h316v-1782zM482 0v221h351v-221h-351zM482 1561v221h351v-221h-351zM482 810v225h235v-225h-235z" />
    <glyph glyph-name="f" unicode="f" horiz-adv-x="842" 
d="M432 0h-316v1782h316v-1782zM482 1561v221h351v-221h-351zM482 810v225h235v-225h-235z" />
    <glyph glyph-name="g" unicode="g" horiz-adv-x="1211" 
d="M628 1568v247c354 -10 471 -263 471 -594v-85h-305v100c0 146 -13 316 -166 332zM623 -25v238c144 12 171 165 171 284v177h-129v229h445v-903h-209l-46 135c-46 -81 -135 -139 -232 -160zM574 214v-246c-9 -1 -17 -1 -26 -1c-356 0 -456 325 -456 578v655
c0 333 114 601 486 614v-247c-138 -17 -170 -159 -170 -282v-795c0 -120 28 -258 166 -276z" />
    <glyph glyph-name="h" unicode="h" horiz-adv-x="1187" 
d="M753 1782h319v-1782h-319v810h-271v202h271v770zM433 1782l-1 -1782h-316v1782h317z" />
    <glyph glyph-name="i" unicode="i" horiz-adv-x="548" 
d="M115 0v1782h317v-1782h-317z" />
    <glyph glyph-name="j" unicode="j" horiz-adv-x="612" 
d="M3 -26v224c146 0 178 28 178 231v1353h316v-1355c0 -304 -57 -453 -398 -453h-96z" />
    <glyph glyph-name="k" unicode="k" horiz-adv-x="1147" 
d="M482 857v237l272 688h351l-364 -801l403 -981h-329zM432 0h-316v1782h316v-1782z" />
    <glyph glyph-name="l" unicode="l" horiz-adv-x="837" 
d="M432 0h-316v1782h316v-1782zM482 0v221h336v-221h-336z" />
    <glyph glyph-name="m" unicode="m" horiz-adv-x="1518" 
d="M1086 1781h21v-910l-263 -871h-170l-263 871v910h18l330 -1332zM361 0h-245v1782h245v-1782zM1402 0h-245v1782h245v-1782z" />
    <glyph glyph-name="n" unicode="n" horiz-adv-x="1183" 
d="M116 1783h229l43 -104v-1679h-272v1783zM846 0l-42 105v1678h263v-1783h-221zM438 949v609l316 -690v-637z" />
    <glyph glyph-name="o" unicode="o" 
d="M573 1815v-247c-136 -15 -165 -161 -165 -288v-780c0 -127 28 -272 165 -287v-246c-364 11 -481 277 -481 604v631c0 334 115 601 481 613zM623 1568v247c366 -12 483 -278 483 -613v-624c0 -327 -116 -599 -483 -611v246c138 15 166 158 166 287v780
c0 128 -29 273 -166 288z" />
    <glyph glyph-name="p" unicode="p" horiz-adv-x="1028" 
d="M432 1782v-1782h-316v1782h316zM482 1554v228h66c320 0 439 -197 439 -499c0 -375 -170 -513 -493 -514h-12v227h26c162 0 177 93 177 292c0 163 -18 266 -253 266h50z" />
    <glyph glyph-name="q" unicode="q" horiz-adv-x="1205" 
d="M575 214v-249c-345 11 -483 265 -483 606v631c0 335 117 601 483 613v-248c-135 -17 -167 -160 -167 -287v-779c0 -128 32 -270 167 -287zM625 -35v248c145 11 170 156 170 288v779c0 130 -30 275 -170 288v247c370 -9 486 -276 486 -613v-624c0 -202 -50 -406 -211 -532
c37 -64 152 -75 184 -78v-197c-216 4 -317 112 -379 202c-26 -4 -54 -7 -80 -8z" />
    <glyph glyph-name="r" unicode="r" horiz-adv-x="1119" 
d="M482 831v200h99c135 0 158 174 158 262c0 90 -20 255 -144 255h-113v234h44c337 0 528 -142 528 -467c0 -162 -9 -346 -224 -441l253 -874h-323l-207 831h-71zM432 0h-316v1782h316v-1782z" />
    <glyph glyph-name="s" unicode="s" horiz-adv-x="1054" 
d="M557 1569v247c245 -5 428 -194 438 -443v-37l-321 -50c0 18 2 39 2 60c-5 91 -34 200 -119 223zM520 214v-248c-303 16 -440 264 -458 527l317 64c5 -149 30 -313 141 -343zM614 1037l-213 -213l-72 68c-133 117 -265 243 -265 473c0 267 179 434 443 450v-243
c-89 -9 -132 -85 -132 -173c0 -121 66 -205 151 -280c19 -17 54 -50 88 -82zM437 791l212 211l37 -33c174 -161 315 -324 315 -584c0 -250 -194 -412 -431 -420v244c91 6 124 73 124 163c0 149 -108 281 -217 382z" />
    <glyph glyph-name="t" unicode="t" horiz-adv-x="884" 
d="M285 1494h317v-1494h-317v1494zM5 1544v238h874v-238h-874z" />
    <glyph glyph-name="u" unicode="u" horiz-adv-x="1223" 
d="M639 -33v245c155 9 162 136 162 403v1167h316v-1168c0 -337 -64 -638 -478 -647zM589 213v-246c-412 11 -483 312 -483 647v1168h317v-1167c0 -261 20 -387 166 -402z" />
    <glyph glyph-name="v" unicode="v" horiz-adv-x="1053" 
d="M498 747l-130 -747l-341 1782h304zM419 0l306 1782h301l-356 -1782h-251z" />
    <glyph glyph-name="w" unicode="w" horiz-adv-x="1475" 
d="M1185 0l-129 850l114 932h273zM418 851l133 -851h-259l-260 1782h273zM586 97l-117 755l142 930h251l141 -932l133 -850h-231l-167 1254z" />
    <glyph glyph-name="x" unicode="x" horiz-adv-x="1078" 
d="M313 864l156 -394l-167 -470h-297zM708 0l-704 1782h332l706 -1782h-334zM724 940l-160 401l140 441h303z" />
    <glyph glyph-name="y" unicode="y" horiz-adv-x="1002" 
d="M654 339v-339h-308v581l-344 1201h291zM654 546l-125 506l125 730h346z" />
    <glyph glyph-name="z" unicode="z" horiz-adv-x="975" 
d="M357 0l84 221h452v-221h-536zM611 1782l-84 -222h-393v222h477zM77 219l588 1563h228v-210l-589 -1572h-227v219z" />
    <glyph glyph-name="braceleft" unicode="{" horiz-adv-x="708" 
d="M644 135v-197c-391 0 -452 246 -452 611v61c0 92 -10 166 -130 166v265c119 0 130 151 130 260v66c0 378 93 512 452 512v-198c-198 0 -198 -86 -198 -301c0 -154 -26 -387 -174 -471c143 -71 166 -219 172 -362c9 -226 -7 -412 200 -412z" />
    <glyph glyph-name="bar" unicode="|" horiz-adv-x="426" 
d="M138 -130v2052h198v-2052h-198z" />
    <glyph glyph-name="braceright" unicode="}" horiz-adv-x="710" 
d="M60 -62v197c199 0 192 173 199 392c4 150 24 307 173 382c-147 81 -174 320 -174 471c0 215 -1 301 -198 301v198c359 0 452 -133 452 -512c0 -18 -1 -41 -1 -66c0 -109 11 -260 131 -260v-265c-120 0 -131 -74 -131 -166c0 -20 1 -40 1 -61c0 -366 -61 -611 -452 -611z
" />
    <glyph glyph-name="asciitilde" unicode="~" horiz-adv-x="980" 
d="M297 868h-167c0 134 57 279 221 279c103 0 211 -85 283 -85c34 0 42 38 43 69h167c0 -126 -54 -281 -221 -281c-108 0 -222 86 -286 86c-34 0 -39 -37 -40 -68z" />
    <glyph glyph-name="exclamdown" unicode="&#xa1;" horiz-adv-x="504" 
d="M105 1495v286h292v-286h-292zM100 0l99 1336h102l109 -1336h-310z" />
    <glyph glyph-name="cent" unicode="&#xa2;" horiz-adv-x="1152" 
d="M563 67v247c127 18 148 174 148 321v70h309v-37c-4 -309 -103 -588 -457 -601zM563 1367v248c339 -12 457 -257 457 -583v-96h-310v112c0 142 -18 301 -147 319zM513 1615v-247c-136 -15 -162 -161 -162 -288v-479c0 -127 26 -273 162 -288v-246
c-367 12 -478 284 -478 611v324c0 334 112 601 478 613zM484 1663v198h110v-198h-110zM484 -188v198h110v-198h-110z" />
    <glyph glyph-name="sterling" unicode="&#xa3;" horiz-adv-x="1070" 
d="M519 0h-441v159l122 57v519h-122v225h122v246c0 260 34 600 392 608v-248c-75 -18 -73 -203 -73 -371v-1195zM642 1559v254c318 -16 340 -286 340 -500h-281c0 77 -1 211 -59 246zM569 0v246h405v-246h-405zM569 735v226h203v-226h-203z" />
    <glyph glyph-name="fraction" unicode="&#x2044;" horiz-adv-x="625" 
d="M16 0l323 1783h187l-326 -1783h-184z" />
    <glyph glyph-name="yen" unicode="&#xa5;" horiz-adv-x="1053" 
d="M848 427v-175h-194v-252h-308v252h-190v175h190v125h-190v172h149l-303 1058h291l339 -1355h216zM654 552l-125 500l125 730h346l-298 -1058h146v-172h-194z" />
    <glyph glyph-name="florin" unicode="&#x192;" horiz-adv-x="571" 
d="M-14 -381v109c12 -3 61 -6 74 -6c120 0 115 87 115 158v1234h-167v84h167v169c0 109 12 285 217 285c41 0 85 -4 122 -13v-109c-12 3 -61 6 -74 6c-120 0 -115 -87 -115 -158v-180h192v-84h-192v-1224c0 -109 -12 -284 -217 -284c-41 0 -85 4 -122 13z" />
    <glyph glyph-name="section" unicode="&#xa7;" horiz-adv-x="985" 
d="M513 1615v214c199 -11 315 -164 359 -350l-201 -66c-25 75 -73 183 -158 202zM463 195v-214c-204 12 -319 167 -367 356l197 66c27 -76 84 -188 170 -208zM513 509l-2 266c95 0 112 56 112 99c0 48 -56 111 -110 160l-1 289c168 -107 365 -235 365 -449
c0 -119 -44 -200 -167 -244c96 -66 159 -199 159 -308c0 -219 -153 -334 -356 -342v213c69 7 102 55 102 128c0 79 -42 137 -102 188zM463 807v-270c-152 102 -364 188 -364 411c0 131 68 231 196 279c-86 59 -188 153 -188 262c0 219 153 331 356 340v-212
c-63 -9 -99 -56 -99 -125c0 -51 37 -95 82 -127l17 -11v-295c-95 0 -117 -42 -117 -98c0 -68 58 -114 117 -154z" />
    <glyph glyph-name="currency" unicode="&#xa4;" horiz-adv-x="1048" 
d="M500 600v-152c-83 4 -149 25 -203 60l-84 -94l-82 78l84 94c-55 71 -80 161 -80 253c0 89 25 178 79 249l-83 93l82 78l83 -92c54 35 121 57 204 61v-153c-133 -13 -193 -125 -193 -236c0 -115 67 -225 193 -239zM550 448v152c131 14 192 126 192 238
c0 111 -60 224 -192 237v153c84 -4 152 -27 207 -63l84 94l82 -78l-86 -96c53 -70 77 -159 77 -246c0 -91 -25 -179 -78 -250l87 -97l-82 -78l-85 96c-54 -35 -123 -58 -206 -62z" />
    <glyph glyph-name="quotesingle" unicode="'" horiz-adv-x="360" 
d="M113 1247l-66 533h274c-6 -34 -61 -499 -67 -533h-141z" />
    <glyph glyph-name="quotedblleft" unicode="&#x201c;" horiz-adv-x="903" 
d="M399 1288h-272c0 57 -3 119 -3 180c0 177 24 344 208 346l71 -143c-68 -7 -129 -48 -132 -113h128v-270zM763 1288h-272c0 56 -3 117 -3 177c0 178 24 347 209 349l70 -143c-69 -7 -129 -49 -132 -113h128v-270z" />
    <glyph glyph-name="guillemotleft" unicode="&#xab;" horiz-adv-x="1014" 
d="M513 77l-434 499v128l434 499v-294l-260 -268l260 -270v-294zM931 77l-435 499v128l435 499v-294l-260 -268l260 -270v-294z" />
    <glyph glyph-name="guilsinglleft" unicode="&#x2039;" horiz-adv-x="605" 
d="M513 77l-434 499v128l434 499v-294l-260 -268l260 -270v-294z" />
    <glyph glyph-name="guilsinglright" unicode="&#x203a;" horiz-adv-x="591" 
d="M79 77v294l260 270l-260 268v294l434 -499v-128z" />
    <glyph glyph-name="endash" unicode="&#x2013;" horiz-adv-x="587" 
d="M29 452v199h530v-199h-530z" />
    <glyph glyph-name="periodcentered" unicode="&#xb7;" horiz-adv-x="503" 
d="M106 685v284h292v-284h-292z" />
    <glyph glyph-name="paragraph" unicode="&#xb6;" horiz-adv-x="1009" 
d="M393 0v885c-211 3 -370 122 -370 333c0 243 176 337 415 337h480v-1555h-186v885h-135v-885h-204z" />
    <glyph glyph-name="bullet" unicode="&#x2022;" horiz-adv-x="895" 
d="M407 431c-133 22 -252 121 -252 290c0 210 145 313 283 313c152 0 304 -109 304 -297c0 -207 -145 -310 -286 -310c-16 0 -33 1 -49 4z" />
    <glyph glyph-name="quotesinglbase" unicode="&#x201a;" horiz-adv-x="423" 
d="M137 -321l-65 398h273c-5 -34 -60 -364 -66 -398h-142z" />
    <glyph glyph-name="quotedblbase" unicode="&#x201e;" horiz-adv-x="754" 
d="M140 -320l-66 398h274c-6 -34 -61 -364 -67 -398h-141zM464 -320l-67 398h274c-5 -34 -61 -364 -67 -398h-140z" />
    <glyph glyph-name="quotedblright" unicode="&#x201d;" horiz-adv-x="900" 
d="M191 1282l-71 144c66 6 131 47 132 112h-128v271h272c0 -57 3 -119 3 -181c0 -176 -24 -344 -208 -346zM555 1282l-71 144c68 6 130 47 133 112h-128v271h272c0 -56 3 -118 3 -178c0 -178 -24 -347 -209 -349z" />
    <glyph glyph-name="guillemotright" unicode="&#xbb;" horiz-adv-x="1013" 
d="M86 77v294l261 270l-261 268v294l435 -499v-128zM504 77v294l260 270l-260 268v294l434 -499v-128z" />
    <glyph glyph-name="perthousand" unicode="&#x2030;" horiz-adv-x="2647" 
d="M561 0l571 1810h167l-572 -1810h-166zM1459 794v187c240 -12 325 -190 325 -456v-60c0 -261 -83 -457 -325 -470l-1 186c80 20 91 137 91 285v55c0 148 -8 255 -90 273zM1408 181v-186c-242 13 -324 209 -324 470v60c0 265 83 444 324 456l1 -186
c-82 -17 -93 -125 -93 -273v-56c0 -148 13 -265 92 -285zM459 1596v187c240 -12 325 -190 325 -456v-60c0 -261 -83 -457 -325 -470l-1 186c80 20 91 137 91 285v55c0 148 -8 255 -90 273zM408 983v-186c-242 13 -324 209 -324 470v60c0 265 83 444 324 456l1 -186
c-82 -17 -93 -125 -93 -273v-56c0 -148 13 -265 92 -285zM2240 794v187c240 -12 325 -190 325 -456v-60c0 -261 -83 -457 -325 -470l-1 186c80 20 91 137 91 285v55c0 148 -8 255 -90 273zM2189 181v-186c-242 13 -324 209 -324 470v60c0 265 83 444 324 456l1 -186
c-82 -17 -93 -125 -93 -273v-56c0 -148 13 -265 92 -285z" />
    <glyph glyph-name="questiondown" unicode="&#xbf;" horiz-adv-x="1099" 
d="M666 -33v257c79 14 124 90 124 190c0 31 -5 97 -14 128l273 46c15 -56 23 -144 23 -195c0 -243 -139 -416 -406 -426zM616 224v-257c-257 10 -421 165 -421 447c0 315 362 534 362 763v71h290v-97c0 -299 -360 -469 -360 -752c0 -109 52 -165 129 -175zM852 1782v-292
h-300v292h300z" />
    <glyph glyph-name="grave" unicode="`" horiz-adv-x="595" 
d="M243 1740l273 -362h-211l-366 362h304z" />
    <glyph glyph-name="acute" unicode="&#xb4;" horiz-adv-x="595" 
d="M109 1378l273 362h304l-366 -362h-211z" />
    <glyph glyph-name="circumflex" unicode="&#x2c6;" horiz-adv-x="805" 
d="M819 1370h-265l-127 208v204h131s246 -391 261 -412zM250 1370h-265c15 21 261 412 261 412h131v-204z" />
    <glyph glyph-name="tilde" unicode="&#x2dc;" horiz-adv-x="867" 
d="M272 1418h-155c0 128 22 274 185 274c113 0 216 -62 275 -62c36 0 41 20 42 51h147c-1 -87 -10 -274 -163 -274c-92 0 -193 74 -279 74c-48 0 -50 -29 -52 -63z" />
    <glyph glyph-name="macron" unicode="&#xaf;" horiz-adv-x="490" 
d="M1 1440v176h493v-176h-493z" />
    <glyph glyph-name="breve" unicode="&#x2d8;" horiz-adv-x="730" 
d="M94 1663h159c4 -69 35 -135 99 -135c65 0 96 66 100 135h159c-2 -164 -120 -253 -259 -253c-138 0 -256 89 -258 253z" />
    <glyph glyph-name="dotaccent" unicode="&#x2d9;" horiz-adv-x="541" 
d="M139 1472v287h292v-287h-292z" />
    <glyph glyph-name="dieresis" unicode="&#xa8;" horiz-adv-x="898" 
d="M115 1468v280h277v-280h-277zM553 1468v280h277v-280h-277z" />
    <glyph glyph-name="ring" unicode="&#x2da;" horiz-adv-x="730" 
d="M333 1518v-113c-131 11 -219 103 -219 233c0 131 88 223 219 234v-113c-50 -16 -68 -75 -68 -120s18 -105 68 -121zM383 1405v112c52 14 69 75 69 121c0 44 -18 107 -69 122v112c132 -10 222 -103 222 -234c0 -132 -89 -224 -222 -233z" />
    <glyph glyph-name="cedilla" unicode="&#xb8;" horiz-adv-x="555" 
d="M127 -524v139c45 0 205 -4 205 47c0 57 -105 99 -151 120v93l147 -1c91 -45 203 -118 203 -217c0 -169 -262 -181 -404 -181z" />
    <glyph glyph-name="hungarumlaut" unicode="&#x2dd;" horiz-adv-x="911" 
d="M110 1406l130 413h256l-213 -413h-173zM407 1406l130 413h257l-213 -413h-174z" />
    <glyph glyph-name="ogonek" unicode="&#x2db;" horiz-adv-x="553" 
d="M234 -95h152c-31 -63 -61 -127 -61 -198c0 -109 104 -108 192 -108l-16 -140c-13 0 -26 -1 -39 -1c-159 0 -334 23 -334 205c0 85 51 176 106 242z" />
    <glyph glyph-name="caron" unicode="&#x2c7;" horiz-adv-x="805" 
d="M-15 1782h265l127 -208v-204h-131s-246 391 -261 412zM554 1782h265c-15 -21 -261 -412 -261 -412h-131v204z" />
    <glyph glyph-name="emdash" unicode="&#x2014;" horiz-adv-x="909" 
d="M29 452v199h852v-199h-852z" />
    <glyph glyph-name="AE" unicode="&#xc6;" horiz-adv-x="1516" 
d="M960 1782l-629 -1782h-306l677 1782h258zM1078 0h-296v399h-256l69 195h187v532l232 656h64v-1782zM1128 1561v221h350v-221h-350zM1128 0v221h350v-221h-350zM1128 810v225h234v-225h-234z" />
    <glyph glyph-name="Lslash" unicode="&#x141;" horiz-adv-x="849" 
d="M433 0h-317v881l-95 -36v168l95 36v733h317v-614l256 97v-168l-256 -97v-1000zM483 0v221h335v-221h-335z" />
    <glyph glyph-name="Oslash" unicode="&#xd8;" 
d="M476 252l-142 -496l-89 20l74 260c-168 100 -227 302 -227 535v631c0 342 120 613 506 613c63 0 120 -8 169 -22l-71 -252c-26 18 -57 28 -98 28c-157 0 -190 -155 -190 -289v-787c0 -90 13 -186 68 -241zM451 -17l68 239c22 -11 48 -17 80 -17c159 0 190 152 190 288
l-1 787c0 78 -11 162 -51 220l147 523l89 -20l-76 -269c153 -105 209 -302 209 -532v-624c0 -334 -121 -611 -508 -611c-54 0 -104 6 -147 16z" />
    <glyph glyph-name="OE" unicode="&#x152;" horiz-adv-x="1543" 
d="M738 224v-224h-140c-385 0 -507 249 -507 584v605c0 325 120 593 507 593h140v-231h-140c-158 0 -190 -153 -190 -284v-761c0 -130 32 -282 190 -282h140zM1105 0h-317v1782h317v-747h284v-225h-284v-810zM1155 1561v221h350v-221h-350zM1155 0v221h350v-221h-350z" />
    <glyph glyph-name="ae" unicode="&#xe6;" horiz-adv-x="1516" 
d="M960 1782l-629 -1782h-306l677 1782h258zM1078 0h-296v399h-256l69 195h187v532l232 656h64v-1782zM1128 1561v221h350v-221h-350zM1128 0v221h350v-221h-350zM1128 810v225h234v-225h-234z" />
    <glyph glyph-name="dotlessi" unicode="&#x131;" horiz-adv-x="548" 
d="M115 0v1782h317v-1782h-317z" />
    <glyph glyph-name="lslash" unicode="&#x142;" horiz-adv-x="849" 
d="M433 0h-317v881l-95 -36v168l95 36v733h317v-614l256 97v-168l-256 -97v-1000zM483 0v221h335v-221h-335z" />
    <glyph glyph-name="oslash" unicode="&#xf8;" 
d="M476 252l-142 -496l-89 20l74 260c-168 100 -227 302 -227 535v631c0 342 120 613 506 613c63 0 120 -8 169 -22l-71 -252c-26 18 -57 28 -98 28c-157 0 -190 -155 -190 -289v-787c0 -90 13 -186 68 -241zM451 -17l68 239c22 -11 48 -17 80 -17c159 0 190 152 190 288
l-1 787c0 78 -11 162 -51 220l147 523l89 -20l-76 -269c153 -105 209 -302 209 -532v-624c0 -334 -121 -611 -508 -611c-54 0 -104 6 -147 16z" />
    <glyph glyph-name="oe" unicode="&#x153;" horiz-adv-x="1543" 
d="M738 224v-224h-140c-385 0 -507 249 -507 584v605c0 325 120 593 507 593h140v-231h-140c-158 0 -190 -153 -190 -284v-761c0 -130 32 -282 190 -282h140zM1105 0h-317v1782h317v-747h284v-225h-284v-810zM1155 1561v221h350v-221h-350zM1155 0v221h350v-221h-350z" />
    <glyph glyph-name="germandbls" unicode="&#xdf;" horiz-adv-x="1162" 
d="M506 1035l234 -65c215 -61 357 -308 357 -558c0 -238 -121 -446 -462 -446l-109 1v220h83c144 0 198 116 198 250c0 184 -123 357 -301 389v209zM770 1015l-235 63c119 54 202 213 202 340c0 93 -44 170 -151 177l-1 218c282 0 433 -195 433 -402
c0 -150 -80 -307 -248 -396zM536 1814v-219c-89 -17 -110 -125 -110 -238v-1357h-319v1354c0 254 147 454 429 460z" />
    <glyph glyph-name="onesuperior" unicode="&#xb9;" horiz-adv-x="553" 
d="M208 635v866c44 32 84 69 117 113h87v-979h-204zM158 1472v-206c-35 -7 -122 -13 -130 -15v146c43 21 87 45 130 75z" />
    <glyph glyph-name="logicalnot" unicode="&#xac;" horiz-adv-x="791" 
d="M128 452v199h523v-393h-135v194h-388z" />
    <glyph glyph-name="trademark" unicode="&#x2122;" horiz-adv-x="2048" 
d="M305 686v678h-163v137h482v-137h-164v-678h-155zM731 686v815h225l114 -472l119 472h222v-815h-145v593l-151 -593h-90l-151 590v-590h-143z" />
    <glyph glyph-name="Eth" unicode="&#xd0;" horiz-adv-x="1150" 
d="M433 0h-317v809h-95v199h95v774h317v-774h141v-199h-141v-809zM483 0v225h14c190 0 243 47 243 212v925c0 141 -75 194 -246 194h-11v226h12c449 0 561 -186 561 -567v-615c0 -388 -86 -600 -564 -600h-9z" />
    <glyph glyph-name="onehalf" unicode="&#xbd;" horiz-adv-x="1699" 
d="M434 0l571 1810h172l-572 -1810h-171zM213 636v866c44 32 84 69 117 113h87v-979h-204zM163 1473v-206c-35 -7 -122 -13 -130 -15v146c43 21 87 45 130 75zM1333 982v-151c-48 -21 -48 -102 -48 -154h-205c0 177 86 294 253 305zM1256 -1l109 148h262v-148h-371zM1193 -1
h-113v137c92 118 346 441 346 564c0 48 -3 113 -43 131v151c159 -9 247 -115 247 -282c0 -87 -72 -206 -144 -304z" />
    <glyph glyph-name="plusminus" unicode="&#xb1;" horiz-adv-x="852" 
d="M130 0v199h586v-199h-586zM323 388v193h-193v199h193v194h201v-194h192v-199h-192v-193h-201z" />
    <glyph glyph-name="Thorn" unicode="&#xde;" horiz-adv-x="1028" 
d="M425 0h-317v1782h317v-1782zM475 1313v228h65c320 0 439 -197 439 -499c0 -371 -166 -510 -484 -514h-20v226h25c162 0 178 95 178 292c0 164 -19 267 -174 267h-29z" />
    <glyph glyph-name="onequarter" unicode="&#xbc;" horiz-adv-x="1651" 
d="M407 0l571 1810h173l-573 -1810h-171zM213 636v866c44 32 84 69 117 113h87v-979h-204zM163 1473v-206c-35 -7 -122 -13 -130 -15v146c43 21 87 45 130 75zM1460 1030h3v-1029h-203v568zM1406 1030l-270 -620h74v-146h-267v137l302 629h161zM1513 264v146h81v-146h-81z
" />
    <glyph glyph-name="divide" unicode="&#xf7;" horiz-adv-x="691" 
d="M12 581v199h652v-199h-652zM206 888v262h264v-262h-264zM206 235v263h264v-263h-264z" />
    <glyph glyph-name="brokenbar" unicode="&#xa6;" horiz-adv-x="433" 
d="M107 -15v640h211v-640h-211zM107 898v639h211v-639h-211z" />
    <glyph glyph-name="degree" unicode="&#xb0;" horiz-adv-x="993" 
d="M464 1279v-171c-211 10 -335 155 -335 361c0 207 125 350 335 360v-172c-100 -11 -145 -95 -145 -188c0 -92 47 -178 145 -190zM514 1108v171c100 12 148 97 148 189c0 93 -48 177 -148 189v173c213 -9 339 -153 339 -361c0 -207 -126 -351 -339 -361z" />
    <glyph glyph-name="thorn" unicode="&#xfe;" horiz-adv-x="1028" 
d="M425 0h-317v1782h317v-1782zM475 1313v228h65c320 0 439 -197 439 -499c0 -371 -166 -510 -484 -514h-20v226h25c162 0 178 95 178 292c0 164 -19 267 -174 267h-29z" />
    <glyph glyph-name="threequarters" unicode="&#xbe;" horiz-adv-x="1894" 
d="M600 0l571 1810h173l-573 -1810h-171zM1650 1030h3v-1029h-203v568zM1596 1030l-270 -620h74v-146h-267v137l302 629h161zM1703 264v146h81v-146h-81zM381 1618l1 -149c-52 -19 -52 -103 -52 -156h-201c0 176 85 294 252 305zM381 784v-149c-167 10 -252 128 -252 304
h201c0 -53 0 -137 51 -155zM432 635v152c40 19 43 81 43 132c0 91 -42 138 -137 142v142c99 7 137 43 137 133c0 47 -4 111 -43 131v151c157 -11 245 -119 245 -280c0 -96 -50 -170 -138 -207c87 -39 138 -117 138 -212c0 -164 -88 -272 -245 -284z" />
    <glyph glyph-name="twosuperior" unicode="&#xb2;" horiz-adv-x="711" 
d="M330 1567v-151c-48 -21 -48 -102 -48 -154h-205c0 177 86 294 253 305zM253 584l109 148h262v-148h-371zM190 584h-113v137c92 118 346 441 346 564c0 48 -3 113 -43 131v151c159 -9 247 -115 247 -282c0 -87 -72 -206 -144 -304z" />
    <glyph glyph-name="registered" unicode="&#xae;" horiz-adv-x="1565" 
d="M803 -12v155c300 14 493 280 493 562c0 281 -195 547 -493 563v160c393 -15 671 -346 671 -720s-278 -706 -671 -720zM753 143v-155c-394 13 -674 345 -674 720c0 376 279 709 674 721v-160c-302 -12 -498 -280 -498 -564c0 -282 198 -548 498 -562zM738 664v108
c101 3 142 30 142 134c0 77 -30 131 -124 131h-18v127h32c194 0 275 -98 275 -261c0 -92 -48 -165 -131 -205l146 -417h-175l-120 383h-27zM688 281h-161v883h161v-883z" />
    <glyph glyph-name="eth" unicode="&#xf0;" horiz-adv-x="1150" 
d="M433 0h-317v809h-95v199h95v774h317v-774h141v-199h-141v-809zM483 0v225h14c190 0 243 47 243 212v925c0 141 -75 194 -246 194h-11v226h12c449 0 561 -186 561 -567v-615c0 -388 -86 -600 -564 -600h-9z" />
    <glyph glyph-name="multiply" unicode="&#xd7;" horiz-adv-x="794" 
d="M62 455l193 194l-193 193l133 134l194 -194l194 194l133 -134l-194 -193c50 -51 138 -140 194 -194l-133 -133l-194 194l-194 -194z" />
    <glyph glyph-name="threesuperior" unicode="&#xb3;" horiz-adv-x="816" 
d="M381 1618l1 -149c-52 -19 -52 -103 -52 -156h-201c0 176 85 294 252 305zM381 784v-149c-167 10 -252 128 -252 304h201c0 -53 0 -137 51 -155zM432 635v152c40 19 43 81 43 132c0 91 -42 138 -137 142v142c99 7 137 43 137 133c0 47 -4 111 -43 131v151
c157 -11 245 -119 245 -280c0 -96 -50 -170 -138 -207c87 -39 138 -117 138 -212c0 -164 -88 -272 -245 -284z" />
    <glyph glyph-name="copyright" unicode="&#xa9;" horiz-adv-x="1565" 
d="M806 1044v154c214 -10 259 -202 259 -352h-185c-1 63 -3 181 -74 198zM806 221v158c73 23 75 142 75 211h183c0 -167 -60 -354 -258 -369zM756 377v-156c-266 14 -271 263 -271 484c0 228 4 475 271 492v-154c-73 -16 -98 -101 -98 -327c0 -261 29 -328 98 -339zM756 142
v-154c-397 11 -677 343 -677 720s281 710 677 721v-160c-303 -11 -501 -279 -501 -564c0 -284 198 -551 501 -563zM806 -11v154c296 17 490 282 490 562s-194 545 -490 563v160c392 -17 668 -347 668 -720s-277 -703 -668 -719z" />
    <glyph glyph-name="Aacute" unicode="&#xc1;" horiz-adv-x="1101" 
d="M572 1135l-117 647h242l378 -1782h-305zM403 1782l121 -668l-86 -530h182l27 -185h-232l-77 -399h-313zM447 1880l273 362h304l-366 -362h-211z" />
    <glyph glyph-name="Acircumflex" unicode="&#xc2;" horiz-adv-x="1101" 
d="M572 1135l-117 647h242l378 -1782h-305zM403 1782l121 -668l-86 -530h182l27 -185h-232l-77 -399h-313zM937 1872h-265l-127 208v204h131s246 -391 261 -412zM368 1872h-265c15 21 261 412 261 412h131v-204z" />
    <glyph glyph-name="Adieresis" unicode="&#xc4;" horiz-adv-x="1101" 
d="M572 1135l-117 647h242l378 -1782h-305zM403 1782l121 -668l-86 -530h182l27 -185h-232l-77 -399h-313zM190 1970v280h277v-280h-277zM628 1970v280h277v-280h-277z" />
    <glyph glyph-name="Agrave" unicode="&#xc0;" horiz-adv-x="1101" 
d="M572 1135l-117 647h242l378 -1782h-305zM403 1782l121 -668l-86 -530h182l27 -185h-232l-77 -399h-313zM367 2242l273 -362h-211l-366 362h304z" />
    <glyph glyph-name="Aring" unicode="&#xc5;" horiz-adv-x="1101" 
d="M572 1135l-117 647h242l378 -1782h-305zM403 1782l121 -668l-86 -530h182l27 -185h-232l-77 -399h-313zM506 2009v-113c-131 11 -219 103 -219 233c0 131 88 223 219 234v-113c-50 -16 -68 -75 -68 -120s18 -105 68 -121zM556 1896v112c52 14 69 75 69 121
c0 44 -18 107 -69 122v112c132 -10 222 -103 222 -234c0 -132 -89 -224 -222 -233z" />
    <glyph glyph-name="Atilde" unicode="&#xc3;" horiz-adv-x="1101" 
d="M572 1135l-117 647h242l378 -1782h-305zM403 1782l121 -668l-86 -530h182l27 -185h-232l-77 -399h-313zM360 1920h-155c0 128 22 274 185 274c113 0 216 -62 275 -62c36 0 41 20 42 51h147c-1 -87 -10 -274 -163 -274c-92 0 -193 74 -279 74c-48 0 -50 -29 -52 -63z" />
    <glyph glyph-name="Ccedilla" unicode="&#xc7;" horiz-adv-x="1151" 
d="M620 -33v247c127 18 148 174 148 321v170h309v-137c-4 -309 -103 -588 -457 -601zM620 1567v248c339 -12 457 -257 457 -583v-136h-310v152c0 142 -18 301 -147 319zM570 1815v-247c-136 -15 -162 -161 -162 -288v-779c0 -127 26 -273 162 -288v-246
c-367 12 -478 284 -478 611v624c0 334 112 601 478 613zM465 -524v139c45 0 205 -4 205 47c0 57 -105 99 -151 120v93l147 -1c91 -45 203 -118 203 -217c0 -169 -262 -181 -404 -181z" />
    <glyph glyph-name="Eacute" unicode="&#xc9;" horiz-adv-x="871" 
d="M360 1893l273 362h304l-366 -362h-211zM432 0h-316v1782h316v-1782zM482 0v221h351v-221h-351zM482 1561v221h351v-221h-351zM482 810v225h235v-225h-235z" />
    <glyph glyph-name="Ecircumflex" unicode="&#xca;" horiz-adv-x="871" 
d="M850 1885h-265l-127 208v204h131s246 -391 261 -412zM281 1885h-265c15 21 261 412 261 412h131v-204zM432 0h-316v1782h316v-1782zM482 0v221h351v-221h-351zM482 1561v221h351v-221h-351zM482 810v225h235v-225h-235z" />
    <glyph glyph-name="Edieresis" unicode="&#xcb;" horiz-adv-x="871" 
d="M103 1983v280h277v-280h-277zM541 1983v280h277v-280h-277zM432 0h-316v1782h316v-1782zM482 0v221h351v-221h-351zM482 1561v221h351v-221h-351zM482 810v225h235v-225h-235z" />
    <glyph glyph-name="Egrave" unicode="&#xc8;" horiz-adv-x="871" 
d="M432 0h-316v1782h316v-1782zM482 0v221h351v-221h-351zM482 1561v221h351v-221h-351zM482 810v225h235v-225h-235zM280 2255l273 -362h-211l-366 362h304z" />
    <glyph glyph-name="Iacute" unicode="&#xcd;" horiz-adv-x="548" 
d="M115 0v1782h317v-1782h-317zM173 1880l273 362h304l-366 -362h-211z" />
    <glyph glyph-name="Icircumflex" unicode="&#xce;" horiz-adv-x="548" 
d="M115 0v1782h317v-1782h-317zM663 1872h-265l-127 208v204h131s246 -391 261 -412zM94 1872h-265c15 21 261 412 261 412h131v-204z" />
    <glyph glyph-name="Idieresis" unicode="&#xcf;" horiz-adv-x="548" 
d="M115 0v1782h317v-1782h-317zM-84 1970v280h277v-280h-277zM354 1970v280h277v-280h-277z" />
    <glyph glyph-name="Igrave" unicode="&#xcc;" horiz-adv-x="548" 
d="M115 0v1782h317v-1782h-317zM93 2242l273 -362h-211l-366 362h304z" />
    <glyph glyph-name="Ntilde" unicode="&#xd1;" horiz-adv-x="1183" 
d="M116 1783h229l43 -104v-1679h-272v1783zM846 0l-42 105v1678h263v-1783h-221zM438 949v609l316 -690v-637zM408 1920h-155c0 128 22 274 185 274c113 0 216 -62 275 -62c36 0 41 20 42 51h147c-1 -87 -10 -274 -163 -274c-92 0 -193 74 -279 74c-48 0 -50 -29 -52 -63z
" />
    <glyph glyph-name="Oacute" unicode="&#xd3;" 
d="M573 1815v-247c-136 -15 -165 -161 -165 -288v-780c0 -127 28 -272 165 -287v-246c-364 11 -481 277 -481 604v631c0 334 115 601 481 613zM623 1568v247c366 -12 483 -278 483 -613v-624c0 -327 -116 -599 -483 -611v246c138 15 166 158 166 287v780
c0 128 -29 273 -166 288zM496 1880l273 362h304l-366 -362h-211z" />
    <glyph glyph-name="Ocircumflex" unicode="&#xd4;" 
d="M573 1815v-247c-136 -15 -165 -161 -165 -288v-780c0 -127 28 -272 165 -287v-246c-364 11 -481 277 -481 604v631c0 334 115 601 481 613zM623 1568v247c366 -12 483 -278 483 -613v-624c0 -327 -116 -599 -483 -611v246c138 15 166 158 166 287v780
c0 128 -29 273 -166 288zM986 1871h-265l-127 208v204h131s246 -391 261 -412zM417 1871h-265c15 21 261 412 261 412h131v-204z" />
    <glyph glyph-name="Odieresis" unicode="&#xd6;" 
d="M573 1815v-247c-136 -15 -165 -161 -165 -288v-780c0 -127 28 -272 165 -287v-246c-364 11 -481 277 -481 604v631c0 334 115 601 481 613zM623 1568v247c366 -12 483 -278 483 -613v-624c0 -327 -116 -599 -483 -611v246c138 15 166 158 166 287v780
c0 128 -29 273 -166 288zM239 1969v280h277v-280h-277zM677 1969v280h277v-280h-277z" />
    <glyph glyph-name="Ograve" unicode="&#xd2;" 
d="M573 1815v-247c-136 -15 -165 -161 -165 -288v-780c0 -127 28 -272 165 -287v-246c-364 11 -481 277 -481 604v631c0 334 115 601 481 613zM623 1568v247c366 -12 483 -278 483 -613v-624c0 -327 -116 -599 -483 -611v246c138 15 166 158 166 287v780
c0 128 -29 273 -166 288zM465 2242l273 -362h-211l-366 362h304z" />
    <glyph glyph-name="Otilde" unicode="&#xd5;" 
d="M573 1815v-247c-136 -15 -165 -161 -165 -288v-780c0 -127 28 -272 165 -287v-246c-364 11 -481 277 -481 604v631c0 334 115 601 481 613zM623 1568v247c366 -12 483 -278 483 -613v-624c0 -327 -116 -599 -483 -611v246c138 15 166 158 166 287v780
c0 128 -29 273 -166 288zM409 1920h-155c0 128 22 274 185 274c113 0 216 -62 275 -62c36 0 41 20 42 51h147c-1 -87 -10 -274 -163 -274c-92 0 -193 74 -279 74c-48 0 -50 -29 -52 -63z" />
    <glyph glyph-name="Scaron" unicode="&#x160;" horiz-adv-x="1018" 
d="M187 2304h265l127 -208v-204h-131s-246 391 -261 412zM756 2304h265c-15 -21 -261 -412 -261 -412h-131v204zM555 1569v247c245 -5 428 -194 438 -443v-37l-321 -50c0 18 2 39 2 60c-5 91 -34 200 -119 223zM518 214v-248c-303 16 -440 264 -458 527l317 64
c5 -149 30 -313 141 -343zM612 1037l-213 -213l-72 68c-133 117 -265 243 -265 473c0 267 179 434 443 450v-243c-89 -9 -132 -85 -132 -173c0 -121 66 -205 151 -280c19 -17 54 -50 88 -82zM435 791l212 211l37 -33c174 -161 315 -324 315 -584c0 -250 -194 -412 -431 -420
v244c91 6 124 73 124 163c0 149 -108 281 -217 382z" />
    <glyph glyph-name="Uacute" unicode="&#xda;" horiz-adv-x="1225" 
d="M513 1880l273 362h304l-366 -362h-211zM640 -33v245c155 9 162 136 162 403v1167h316v-1168c0 -337 -64 -638 -478 -647zM590 213v-246c-412 11 -483 312 -483 647v1168h317v-1167c0 -261 20 -387 166 -402z" />
    <glyph glyph-name="Ucircumflex" unicode="&#xdb;" horiz-adv-x="1225" 
d="M1003 1872h-265l-127 208v204h131s246 -391 261 -412zM434 1872h-265c15 21 261 412 261 412h131v-204zM640 -33v245c155 9 162 136 162 403v1167h316v-1168c0 -337 -64 -638 -478 -647zM590 213v-246c-412 11 -483 312 -483 647v1168h317v-1167c0 -261 20 -387 166 -402
z" />
    <glyph glyph-name="Udieresis" unicode="&#xdc;" horiz-adv-x="1225" 
d="M256 1970v280h277v-280h-277zM694 1970v280h277v-280h-277zM640 -33v245c155 9 162 136 162 403v1167h316v-1168c0 -337 -64 -638 -478 -647zM590 213v-246c-412 11 -483 312 -483 647v1168h317v-1167c0 -261 20 -387 166 -402z" />
    <glyph glyph-name="Ugrave" unicode="&#xd9;" horiz-adv-x="1225" 
d="M640 -33v245c155 9 162 136 162 403v1167h316v-1168c0 -337 -64 -638 -478 -647zM590 213v-246c-412 11 -483 312 -483 647v1168h317v-1167c0 -261 20 -387 166 -402zM433 2242l273 -362h-211l-366 362h304z" />
    <glyph glyph-name="Yacute" unicode="&#xdd;" horiz-adv-x="1002" 
d="M654 339v-339h-308v581l-344 1201h291zM654 546l-125 506l125 730h346zM398 1880l273 362h304l-366 -362h-211z" />
    <glyph glyph-name="Ydieresis" unicode="&#x178;" horiz-adv-x="1002" 
d="M654 339v-339h-308v581l-344 1201h291zM654 546l-125 506l125 730h346zM141 1969v280h277v-280h-277zM579 1969v280h277v-280h-277z" />
    <glyph glyph-name="Zcaron" unicode="&#x17d;" horiz-adv-x="975" 
d="M357 0l84 221h452v-221h-536zM611 1782l-84 -222h-393v222h477zM77 219l588 1563h228v-210l-589 -1572h-227v219zM70 2283h265l127 -208v-204h-131s-246 391 -261 412zM639 2283h265c-15 -21 -261 -412 -261 -412h-131v204z" />
    <glyph glyph-name="aacute" unicode="&#xe1;" horiz-adv-x="1100" 
d="M645 1782l-117 -647l-198 -1135h-305l378 1782h242zM576 1114l121 668l378 -1782h-313l-77 399h-232l27 185h182zM447 1880l273 362h304l-366 -362h-211z" />
    <glyph glyph-name="acircumflex" unicode="&#xe2;" horiz-adv-x="1100" 
d="M645 1782l-117 -647l-198 -1135h-305l378 1782h242zM576 1114l121 668l378 -1782h-313l-77 399h-232l27 185h182zM963 1861h-265l-127 208v204h131s246 -391 261 -412zM394 1861h-265c15 21 261 412 261 412h131v-204z" />
    <glyph glyph-name="adieresis" unicode="&#xe4;" horiz-adv-x="1100" 
d="M645 1782l-117 -647l-198 -1135h-305l378 1782h242zM576 1114l121 668l378 -1782h-313l-77 399h-232l27 185h182zM190 1969v280h277v-280h-277zM628 1969v280h277v-280h-277z" />
    <glyph glyph-name="agrave" unicode="&#xe0;" horiz-adv-x="1100" 
d="M645 1782l-117 -647l-198 -1135h-305l378 1782h242zM576 1114l121 668l378 -1782h-313l-77 399h-232l27 185h182zM416 2242l273 -362h-211l-366 362h304z" />
    <glyph glyph-name="aring" unicode="&#xe5;" horiz-adv-x="1100" 
d="M645 1782l-117 -647l-198 -1135h-305l378 1782h242zM576 1114l121 668l378 -1782h-313l-77 399h-232l27 185h182zM506 2009v-113c-131 11 -219 103 -219 233c0 131 88 223 219 234v-113c-50 -16 -68 -75 -68 -120s18 -105 68 -121zM556 1896v112c52 14 69 75 69 121
c0 44 -18 107 -69 122v112c132 -10 222 -103 222 -234c0 -132 -89 -224 -222 -233z" />
    <glyph glyph-name="atilde" unicode="&#xe3;" horiz-adv-x="1100" 
d="M645 1782l-117 -647l-198 -1135h-305l378 1782h242zM576 1114l121 668l378 -1782h-313l-77 399h-232l27 185h182zM360 1920h-155c0 128 22 274 185 274c113 0 216 -62 275 -62c36 0 41 20 42 51h147c-1 -87 -10 -274 -163 -274c-92 0 -193 74 -279 74
c-48 0 -50 -29 -52 -63z" />
    <glyph glyph-name="ccedilla" unicode="&#xe7;" horiz-adv-x="909" 
d="M620 -33v247c127 18 148 174 148 321v170h309v-137c-4 -309 -103 -588 -457 -601zM620 1567v248c339 -12 457 -257 457 -583v-136h-310v152c0 142 -18 301 -147 319zM570 1815v-247c-136 -15 -162 -161 -162 -288v-779c0 -127 26 -273 162 -288v-246
c-367 12 -478 284 -478 611v624c0 334 112 601 478 613zM334 -524v139c45 0 205 -4 205 47c0 57 -105 99 -151 120v93l147 -1c91 -45 203 -118 203 -217c0 -169 -262 -181 -404 -181z" />
    <glyph glyph-name="eacute" unicode="&#xe9;" horiz-adv-x="871" 
d="M432 0h-316v1782h316v-1782zM482 0v221h351v-221h-351zM482 1561v221h351v-221h-351zM482 810v225h235v-225h-235zM360 1894l273 362h304l-366 -362h-211z" />
    <glyph glyph-name="ecircumflex" unicode="&#xea;" horiz-adv-x="871" 
d="M432 0h-316v1782h316v-1782zM482 0v221h351v-221h-351zM482 1561v221h351v-221h-351zM482 810v225h235v-225h-235zM876 1875h-265l-127 208v204h131s246 -391 261 -412zM307 1875h-265c15 21 261 412 261 412h131v-204z" />
    <glyph glyph-name="edieresis" unicode="&#xeb;" horiz-adv-x="871" 
d="M432 0h-316v1782h316v-1782zM482 0v221h351v-221h-351zM482 1561v221h351v-221h-351zM482 810v225h235v-225h-235zM103 1983v280h277v-280h-277zM541 1983v280h277v-280h-277z" />
    <glyph glyph-name="egrave" unicode="&#xe8;" horiz-adv-x="871" 
d="M432 0h-316v1782h316v-1782zM482 0v221h351v-221h-351zM482 1561v221h351v-221h-351zM482 810v225h235v-225h-235zM329 2256l273 -362h-211l-366 362h304z" />
    <glyph glyph-name="iacute" unicode="&#xed;" horiz-adv-x="548" 
d="M115 0v1782h317v-1782h-317zM173 1880l273 362h304l-366 -362h-211z" />
    <glyph glyph-name="icircumflex" unicode="&#xee;" horiz-adv-x="548" 
d="M115 0v1782h317v-1782h-317zM663 1872h-265l-127 208v204h131s246 -391 261 -412zM94 1872h-265c15 21 261 412 261 412h131v-204z" />
    <glyph glyph-name="idieresis" unicode="&#xef;" horiz-adv-x="548" 
d="M115 0v1782h317v-1782h-317zM-84 1970v280h277v-280h-277zM354 1970v280h277v-280h-277z" />
    <glyph glyph-name="igrave" unicode="&#xec;" horiz-adv-x="548" 
d="M115 0v1782h317v-1782h-317zM93 2242l273 -362h-211l-366 362h304z" />
    <glyph glyph-name="ntilde" unicode="&#xf1;" horiz-adv-x="1183" 
d="M116 1783h229l43 -104v-1679h-272v1783zM846 0l-42 105v1678h263v-1783h-221zM438 949v609l316 -690v-637zM408 1920h-155c0 128 22 274 185 274c113 0 216 -62 275 -62c36 0 41 20 42 51h147c-1 -87 -10 -274 -163 -274c-92 0 -193 74 -279 74c-48 0 -50 -29 -52 -63z
" />
    <glyph glyph-name="oacute" unicode="&#xf3;" 
d="M573 1815v-247c-136 -15 -165 -161 -165 -288v-780c0 -127 28 -272 165 -287v-246c-364 11 -481 277 -481 604v631c0 334 115 601 481 613zM623 1568v247c366 -12 483 -278 483 -613v-624c0 -327 -116 -599 -483 -611v246c138 15 166 158 166 287v780
c0 128 -29 273 -166 288zM496 1880l273 362h304l-366 -362h-211z" />
    <glyph glyph-name="ocircumflex" unicode="&#xf4;" 
d="M573 1815v-247c-136 -15 -165 -161 -165 -288v-780c0 -127 28 -272 165 -287v-246c-364 11 -481 277 -481 604v631c0 334 115 601 481 613zM623 1568v247c366 -12 483 -278 483 -613v-624c0 -327 -116 -599 -483 -611v246c138 15 166 158 166 287v780
c0 128 -29 273 -166 288zM1012 1861h-265l-127 208v204h131s246 -391 261 -412zM443 1861h-265c15 21 261 412 261 412h131v-204z" />
    <glyph glyph-name="odieresis" unicode="&#xf6;" 
d="M573 1815v-247c-136 -15 -165 -161 -165 -288v-780c0 -127 28 -272 165 -287v-246c-364 11 -481 277 -481 604v631c0 334 115 601 481 613zM623 1568v247c366 -12 483 -278 483 -613v-624c0 -327 -116 -599 -483 -611v246c138 15 166 158 166 287v780
c0 128 -29 273 -166 288zM239 1969v280h277v-280h-277zM677 1969v280h277v-280h-277z" />
    <glyph glyph-name="ograve" unicode="&#xf2;" 
d="M573 1815v-247c-136 -15 -165 -161 -165 -288v-780c0 -127 28 -272 165 -287v-246c-364 11 -481 277 -481 604v631c0 334 115 601 481 613zM623 1568v247c366 -12 483 -278 483 -613v-624c0 -327 -116 -599 -483 -611v246c138 15 166 158 166 287v780
c0 128 -29 273 -166 288zM465 2242l273 -362h-211l-366 362h304z" />
    <glyph glyph-name="otilde" unicode="&#xf5;" 
d="M573 1815v-247c-136 -15 -165 -161 -165 -288v-780c0 -127 28 -272 165 -287v-246c-364 11 -481 277 -481 604v631c0 334 115 601 481 613zM623 1568v247c366 -12 483 -278 483 -613v-624c0 -327 -116 -599 -483 -611v246c138 15 166 158 166 287v780
c0 128 -29 273 -166 288zM409 1920h-155c0 128 22 274 185 274c113 0 216 -62 275 -62c36 0 41 20 42 51h147c-1 -87 -10 -274 -163 -274c-92 0 -193 74 -279 74c-48 0 -50 -29 -52 -63z" />
    <glyph glyph-name="scaron" unicode="&#x161;" horiz-adv-x="1054" 
d="M557 1569v247c245 -5 428 -194 438 -443v-37l-321 -50c0 18 2 39 2 60c-5 91 -34 200 -119 223zM520 214v-248c-303 16 -440 264 -458 527l317 64c5 -149 30 -313 141 -343zM614 1037l-213 -213l-72 68c-133 117 -265 243 -265 473c0 267 179 434 443 450v-243
c-89 -9 -132 -85 -132 -173c0 -121 66 -205 151 -280c19 -17 54 -50 88 -82zM437 791l212 211l37 -33c174 -161 315 -324 315 -584c0 -250 -194 -412 -431 -420v244c91 6 124 73 124 163c0 149 -108 281 -217 382zM111 2272h265l127 -208v-204h-131s-246 391 -261 412z
M680 2272h265c-15 -21 -261 -412 -261 -412h-131v204z" />
    <glyph glyph-name="uacute" unicode="&#xfa;" horiz-adv-x="1223" 
d="M639 -33v245c155 9 162 136 162 403v1167h316v-1168c0 -337 -64 -638 -478 -647zM589 213v-246c-412 11 -483 312 -483 647v1168h317v-1167c0 -261 20 -387 166 -402zM512 1880l273 362h304l-366 -362h-211z" />
    <glyph glyph-name="ucircumflex" unicode="&#xfb;" horiz-adv-x="1223" 
d="M639 -33v245c155 9 162 136 162 403v1167h316v-1168c0 -337 -64 -638 -478 -647zM589 213v-246c-412 11 -483 312 -483 647v1168h317v-1167c0 -261 20 -387 166 -402zM1002 1871h-265l-127 208v204h131s246 -391 261 -412zM433 1871h-265c15 21 261 412 261 412h131v-204
z" />
    <glyph glyph-name="udieresis" unicode="&#xfc;" horiz-adv-x="1223" 
d="M639 -33v245c155 9 162 136 162 403v1167h316v-1168c0 -337 -64 -638 -478 -647zM589 213v-246c-412 11 -483 312 -483 647v1168h317v-1167c0 -261 20 -387 166 -402zM255 1969v280h277v-280h-277zM693 1969v280h277v-280h-277z" />
    <glyph glyph-name="ugrave" unicode="&#xf9;" horiz-adv-x="1223" 
d="M639 -33v245c155 9 162 136 162 403v1167h316v-1168c0 -337 -64 -638 -478 -647zM589 213v-246c-412 11 -483 312 -483 647v1168h317v-1167c0 -261 20 -387 166 -402zM481 2242l273 -362h-211l-366 362h304z" />
    <glyph glyph-name="yacute" unicode="&#xfd;" horiz-adv-x="1002" 
d="M654 339v-339h-308v581l-344 1201h291zM654 546l-125 506l125 730h346zM398 1880l273 362h304l-366 -362h-211z" />
    <glyph glyph-name="ydieresis" unicode="&#xff;" horiz-adv-x="1002" 
d="M654 339v-339h-308v581l-344 1201h291zM654 546l-125 506l125 730h346zM141 1969v280h277v-280h-277zM579 1969v280h277v-280h-277z" />
    <glyph glyph-name="zcaron" unicode="&#x17e;" horiz-adv-x="975" 
d="M357 0l84 221h452v-221h-536zM611 1782l-84 -222h-393v222h477zM77 219l588 1563h228v-210l-589 -1572h-227v219zM70 2283h265l127 -208v-204h-131s-246 391 -261 412zM639 2283h265c-15 -21 -261 -412 -261 -412h-131v204z" />
    <glyph glyph-name="foursuperior" unicode="&#x2074;" horiz-adv-x="808" 
d="M599 1613h3v-1029h-203v568zM545 1613l-270 -620h74v-146h-267v137l302 629h161zM652 847v146h81v-146h-81z" />
    <glyph glyph-name=".null" horiz-adv-x="360" 
 />
    <glyph glyph-name="nonmarkingreturn" horiz-adv-x="115" 
 />
    <glyph glyph-name="uni00AD" unicode="&#xad;" horiz-adv-x="772" 
d="M136 436v224h519v-224h-519z" />
    <glyph glyph-name="Hbar" unicode="&#x126;" horiz-adv-x="1170" 
d="M473 1334v110h271v338h319v-1782h-319v810h-271v225h271v299h-271zM423 0h-316v1782h316v-1782z" />
    <glyph glyph-name="Idotaccent" unicode="&#x130;" horiz-adv-x="444" 
d="M115 0v1782h317v-1782h-317zM152 1996v287h292v-287h-292z" />
    <glyph glyph-name="Zdotaccent" unicode="&#x17b;" horiz-adv-x="975" 
d="M357 0l84 221h452v-221h-536zM611 1782l-84 -222h-393v222h477zM77 219l588 1563h228v-210l-589 -1572h-227v219zM341 1973v287h292v-287h-292z" />
    <glyph glyph-name="zdotaccent" unicode="&#x17c;" horiz-adv-x="975" 
d="M357 0l84 221h452v-221h-536zM611 1782l-84 -222h-393v222h477zM77 219l588 1563h228v-210l-589 -1572h-227v219zM341 1973v287h292v-287h-292z" />
    <glyph glyph-name="Euro" unicode="&#x20ac;" horiz-adv-x="1052" 
d="M563 1390v228c307 -16 396 -257 399 -540v-20h-251v28c0 114 -24 283 -148 304zM563 -27v233c140 16 155 218 155 341v31h248v-25c-1 -288 -74 -567 -403 -580zM512 207v-233c-319 12 -406 244 -416 530v50h-81v173h80v128h-80v173h83v53c11 284 94 527 414 538l1 -228
c-154 -13 -162 -167 -162 -303v-60h161v-173h-161v-128h161v-173h-159v-55c5 -127 23 -273 159 -292z" />
    <glyph glyph-name="NULL" horiz-adv-x="336" 
 />
    <glyph glyph-name="cdieresis" horiz-adv-x="0" 
 />
    <glyph glyph-name="foundryicon" horiz-adv-x="1562" 
d="M318 277l168 542l-459 349h572l178 542l188 -542h572l-461 -349l170 -542l-469 327z" />
    <glyph glyph-name="rcaron" unicode="&#x159;" horiz-adv-x="1119" 
d="M482 831v200h99c135 0 158 174 158 262c0 90 -20 255 -144 255h-113v234h44c337 0 528 -142 528 -467c0 -162 -9 -346 -224 -441l253 -874h-323l-207 831h-71zM432 0h-316v1782h316v-1782zM92 2273h265l127 -208v-204h-131s-246 391 -261 412zM661 2273h265
c-15 -21 -261 -412 -261 -412h-131v204z" />
    <glyph glyph-name="uni0311" unicode="&#x311;" horiz-adv-x="730" 
d="M252 1410h-158c2 164 119 253 258 253s256 -89 258 -253h-158c-5 69 -36 134 -100 134s-95 -65 -100 -134z" />
    <glyph glyph-name="uni030F" unicode="&#x30f;" horiz-adv-x="913" 
d="M615 1406l-213 413h255l130 -413h-172zM316 1406l-213 413h257l130 -413h-174z" />
    <glyph glyph-name="dotaccentcmb" unicode="&#x307;" horiz-adv-x="410" 
d="M113 1380v179h184v-179h-184z" />
    <glyph glyph-name="Racute" unicode="&#x154;" horiz-adv-x="1119" 
d="M482 831v200h99c135 0 158 174 158 262c0 90 -20 255 -144 255h-113v234h44c337 0 528 -142 528 -467c0 -162 -9 -346 -224 -441l253 -874h-323l-207 831h-71zM432 0h-316v1782h316v-1782zM410 1880l273 362h304l-366 -362h-211z" />
    <glyph glyph-name="Rcaron" unicode="&#x158;" horiz-adv-x="1119" 
d="M482 831v200h99c135 0 158 174 158 262c0 90 -20 255 -144 255h-113v234h44c337 0 528 -142 528 -467c0 -162 -9 -346 -224 -441l253 -874h-323l-207 831h-71zM432 0h-316v1782h316v-1782zM92 2273h265l127 -208v-204h-131s-246 391 -261 412zM661 2273h265
c-15 -21 -261 -412 -261 -412h-131v204z" />
    <glyph glyph-name="Itilde" unicode="&#x128;" horiz-adv-x="548" 
d="M115 0v1782h317v-1782h-317zM86 1920h-155c0 128 22 274 185 274c113 0 216 -62 275 -62c36 0 41 20 42 51h147c-1 -87 -10 -274 -163 -274c-92 0 -193 74 -279 74c-48 0 -50 -29 -52 -63z" />
    <glyph glyph-name="nacute" unicode="&#x144;" horiz-adv-x="1183" 
d="M116 1783h229l43 -104v-1679h-272v1783zM846 0l-42 105v1678h263v-1783h-221zM438 949v609l316 -690v-637zM495 1880l273 362h304l-366 -362h-211z" />
    <glyph glyph-name="kgreenlandic" unicode="&#x138;" horiz-adv-x="1147" 
d="M482 857v237l272 688h351l-364 -801l403 -981h-329zM432 0h-316v1782h316v-1782z" />
    <glyph glyph-name="dotlessj" unicode="&#x237;" horiz-adv-x="612" 
d="M3 -26v224c146 0 178 28 178 231v1353h316v-1355c0 -304 -57 -453 -398 -453h-96z" />
    <glyph glyph-name="itilde" unicode="&#x129;" horiz-adv-x="548" 
d="M115 0v1782h317v-1782h-317zM86 1920h-155c0 128 22 274 185 274c113 0 216 -62 275 -62c36 0 41 20 42 51h147c-1 -87 -10 -274 -163 -274c-92 0 -193 74 -279 74c-48 0 -50 -29 -52 -63z" />
    <glyph glyph-name="jcircumflex" unicode="&#x135;" horiz-adv-x="612" 
d="M3 -26v224c146 0 178 28 178 231v1353h316v-1355c0 -304 -57 -453 -398 -453h-96zM752 1861h-265l-127 208v204h131s246 -391 261 -412zM183 1861h-265c15 21 261 412 261 412h131v-204z" />
    <glyph glyph-name="Jcircumflex" unicode="&#x134;" horiz-adv-x="612" 
d="M3 -26v224c146 0 178 28 178 231v1353h316v-1355c0 -304 -57 -453 -398 -453h-96zM752 1861h-265l-127 208v204h131s246 -391 261 -412zM183 1861h-265c15 21 261 412 261 412h131v-204z" />
    <glyph glyph-name="Nacute" unicode="&#x143;" horiz-adv-x="1183" 
d="M116 1783h229l43 -104v-1679h-272v1783zM846 0l-42 105v1678h263v-1783h-221zM438 949v609l316 -690v-637zM495 1880l273 362h304l-366 -362h-211z" />
    <glyph glyph-name="ccircumflex" unicode="&#x109;" horiz-adv-x="1152" 
d="M620 -33v247c127 18 148 174 148 321v170h309v-137c-4 -309 -103 -588 -457 -601zM620 1567v248c339 -12 457 -257 457 -583v-136h-310v152c0 142 -18 301 -147 319zM570 1815v-247c-136 -15 -162 -161 -162 -288v-779c0 -127 26 -273 162 -288v-246
c-367 12 -478 284 -478 611v624c0 334 112 601 478 613zM1007 1861h-265l-127 208v204h131s246 -391 261 -412zM438 1861h-265c15 21 261 412 261 412h131v-204z" />
    <glyph glyph-name="Ccircumflex" unicode="&#x108;" horiz-adv-x="1152" 
d="M620 -33v247c127 18 148 174 148 321v170h309v-137c-4 -309 -103 -588 -457 -601zM620 1567v248c339 -12 457 -257 457 -583v-136h-310v152c0 142 -18 301 -147 319zM570 1815v-247c-136 -15 -162 -161 -162 -288v-779c0 -127 26 -273 162 -288v-246
c-367 12 -478 284 -478 611v624c0 334 112 601 478 613zM1007 1861h-265l-127 208v204h131s246 -391 261 -412zM438 1861h-265c15 21 261 412 261 412h131v-204z" />
    <glyph glyph-name="uni0326" unicode="&#x326;" horiz-adv-x="1122" 
d="M478 -613l-37 141c76 8 85 29 86 105h-114v287h292c0 -48 1 -94 1 -137c0 -242 -22 -394 -228 -396zM482 831v200h99c135 0 158 174 158 262c0 90 -20 255 -144 255h-113v234h44c337 0 528 -142 528 -467c0 -162 -9 -346 -224 -441l253 -874h-323l-207 831h-71zM432 0
h-316v1782h316v-1782z" />
    <glyph glyph-name="Rcommaaccent" unicode="&#x156;" horiz-adv-x="1122" 
d="M478 -613l-37 141c76 8 85 29 86 105h-114v287h292c0 -48 1 -94 1 -137c0 -242 -22 -394 -228 -396zM482 831v200h99c135 0 158 174 158 262c0 90 -20 255 -144 255h-113v234h44c337 0 528 -142 528 -467c0 -162 -9 -346 -224 -441l253 -874h-323l-207 831h-71zM432 0
h-316v1782h316v-1782z" />
    <glyph glyph-name="commaaccent" unicode="&#xf6c3;" horiz-adv-x="505" 
d="M165 -613l-37 141c76 8 85 29 86 105h-114v287h292c0 -48 1 -94 1 -137c0 -242 -22 -394 -228 -396z" />
    <glyph glyph-name="Iogonek" unicode="&#x12e;" horiz-adv-x="548" 
d="M115 0v1782h317v-1782h-317zM264 -101h152c-31 -63 -61 -127 -61 -198c0 -109 104 -108 192 -108l-16 -140c-13 0 -26 -1 -39 -1c-159 0 -334 23 -334 205c0 85 51 176 106 242z" />
    <glyph glyph-name="rcommaaccent" unicode="&#x157;" horiz-adv-x="1122" 
d="M478 -613l-37 141c76 8 85 29 86 105h-114v287h292c0 -48 1 -94 1 -137c0 -242 -22 -394 -228 -396zM482 831v200h99c135 0 158 174 158 262c0 90 -20 255 -144 255h-113v234h44c337 0 528 -142 528 -467c0 -162 -9 -346 -224 -441l253 -874h-323l-207 831h-71zM432 0
h-316v1782h316v-1782z" />
    <glyph glyph-name="IJ" unicode="&#x132;" horiz-adv-x="1200" 
d="M115 0v1782h317v-1782h-317zM604 -26v224c146 0 178 28 178 231v1353h316v-1355c0 -304 -57 -453 -398 -453h-96z" />
    <glyph glyph-name="iogonek" unicode="&#x12f;" horiz-adv-x="572" 
d="M117 0v1782h317v-1782h-317zM267 -95h152c-31 -63 -61 -127 -61 -198c0 -109 104 -108 192 -108l-16 -140c-13 0 -26 -1 -39 -1c-159 0 -334 23 -334 205c0 85 51 176 106 242z" />
    <glyph glyph-name="Ldotaccent" unicode="&#x13f;" horiz-adv-x="953" 
d="M431 0h-316v1782h316v-1782zM481 0v221h336v-221h-336zM590 685v284h292v-284h-292z" />
    <glyph glyph-name="ij" unicode="&#x133;" horiz-adv-x="980" 
d="M117 0v1782h317v-1782h-317zM530 -26v224c146 0 178 28 178 231v1353h316v-1355c0 -304 -57 -453 -398 -453h-96z" />
    <glyph glyph-name="kcommaaccent" unicode="&#x137;" horiz-adv-x="1147" 
d="M482 857v237l272 688h351l-364 -801l403 -981h-329zM432 0h-316v1782h316v-1782zM492 -613l-37 141c76 8 85 29 86 105h-114v287h292c0 -48 1 -94 1 -137c0 -242 -22 -394 -228 -396z" />
    <glyph glyph-name="Uogonek" unicode="&#x172;" horiz-adv-x="1223" 
d="M639 -33v245c155 9 162 136 162 403v1167h316v-1168c0 -337 -64 -638 -478 -647zM589 213v-246c-412 11 -483 312 -483 647v1168h317v-1167c0 -261 20 -387 166 -402zM568 -101h152c-31 -63 -61 -127 -61 -198c0 -109 104 -108 192 -108l-16 -140c-13 0 -26 -1 -39 -1
c-159 0 -334 23 -334 205c0 85 51 176 106 242z" />
    <glyph glyph-name="uogonek" unicode="&#x173;" horiz-adv-x="1223" 
d="M639 -33v245c155 9 162 136 162 403v1167h316v-1168c0 -337 -64 -638 -478 -647zM589 213v-246c-412 11 -483 312 -483 647v1168h317v-1167c0 -261 20 -387 166 -402zM568 -101h152c-31 -63 -61 -127 -61 -198c0 -109 104 -108 192 -108l-16 -140c-13 0 -26 -1 -39 -1
c-159 0 -334 23 -334 205c0 85 51 176 106 242z" />
    <glyph glyph-name="Umacron" unicode="&#x16a;" horiz-adv-x="1223" 
d="M639 -33v245c155 9 162 136 162 403v1167h316v-1168c0 -337 -64 -638 -478 -647zM589 213v-246c-412 11 -483 312 -483 647v1168h317v-1167c0 -261 20 -387 166 -402zM365 1941v176h493v-176h-493z" />
    <glyph glyph-name="umacron" unicode="&#x16b;" horiz-adv-x="1223" 
d="M639 -33v245c155 9 162 136 162 403v1167h316v-1168c0 -337 -64 -638 -478 -647zM589 213v-246c-412 11 -483 312 -483 647v1168h317v-1167c0 -261 20 -387 166 -402zM365 1941v176h493v-176h-493z" />
    <glyph glyph-name="hbar" unicode="&#x127;" horiz-adv-x="1170" 
d="M473 1334v110h271v338h319v-1782h-319v810h-271v225h271v299h-271zM423 0h-316v1782h316v-1782z" />
    <glyph glyph-name="ldot" unicode="&#x140;" horiz-adv-x="953" 
d="M431 0h-316v1782h316v-1782zM481 0v221h336v-221h-336zM590 685v284h292v-284h-292z" />
    <glyph glyph-name="Dz" unicode="&#x1f2;" horiz-adv-x="1918" 
d="M1447 0l84 221h452v-221h-536zM1701 1782l-84 -222h-393v222h477zM1167 219l588 1563h228v-210l-589 -1572h-227v219zM482 0v225h9c195 0 248 45 248 212v925c0 142 -74 193 -243 194h-14v226h12c449 0 562 -186 562 -567v-615c0 -388 -86 -600 -565 -600h-9zM432 0h-316
v1782h316v-1782z" />
    <glyph glyph-name="nbspace" horiz-adv-x="336" 
 />
    <glyph glyph-name="CR" unicode="&#xd;" horiz-adv-x="75" 
 />
    <glyph glyph-name="uni0210" unicode="&#x210;" horiz-adv-x="1119" 
d="M482 831v200h99c135 0 158 174 158 262c0 90 -20 255 -144 255h-113v234h44c337 0 528 -142 528 -467c0 -162 -9 -346 -224 -441l253 -874h-323l-207 831h-71zM432 0h-316v1782h316v-1782zM618 1908l-213 413h255l130 -413h-172zM319 1908l-213 413h257l130 -413h-174z
" />
    <glyph glyph-name="uni0211" unicode="&#x211;" horiz-adv-x="1119" 
d="M482 831v200h99c135 0 158 174 158 262c0 90 -20 255 -144 255h-113v234h44c337 0 528 -142 528 -467c0 -162 -9 -346 -224 -441l253 -874h-323l-207 831h-71zM432 0h-316v1782h316v-1782zM618 1908l-213 413h255l130 -413h-172zM319 1908l-213 413h257l130 -413h-174z
" />
    <glyph glyph-name="uni0212" unicode="&#x212;" horiz-adv-x="1119" 
d="M482 831v200h99c135 0 158 174 158 262c0 90 -20 255 -144 255h-113v234h44c337 0 528 -142 528 -467c0 -162 -9 -346 -224 -441l253 -874h-323l-207 831h-71zM432 0h-316v1782h316v-1782zM414 1910h-158c2 164 119 253 258 253s256 -89 258 -253h-158
c-5 69 -36 134 -100 134s-95 -65 -100 -134z" />
    <glyph glyph-name="uni0213" unicode="&#x213;" horiz-adv-x="1119" 
d="M482 831v200h99c135 0 158 174 158 262c0 90 -20 255 -144 255h-113v234h44c337 0 528 -142 528 -467c0 -162 -9 -346 -224 -441l253 -874h-323l-207 831h-71zM432 0h-316v1782h316v-1782zM414 1910h-158c2 164 119 253 258 253s256 -89 258 -253h-158
c-5 69 -36 134 -100 134s-95 -65 -100 -134z" />
    <glyph glyph-name="uni0214" unicode="&#x214;" horiz-adv-x="1223" 
d="M639 -33v245c155 9 162 136 162 403v1167h316v-1168c0 -337 -64 -638 -478 -647zM589 213v-246c-412 11 -483 312 -483 647v1168h317v-1167c0 -261 20 -387 166 -402zM720 1908l-213 413h255l130 -413h-172zM421 1908l-213 413h257l130 -413h-174z" />
    <glyph glyph-name="uni0215" unicode="&#x215;" horiz-adv-x="1223" 
d="M639 -33v245c155 9 162 136 162 403v1167h316v-1168c0 -337 -64 -638 -478 -647zM589 213v-246c-412 11 -483 312 -483 647v1168h317v-1167c0 -261 20 -387 166 -402zM720 1908l-213 413h255l130 -413h-172zM421 1908l-213 413h257l130 -413h-174z" />
    <glyph glyph-name="uni0216" unicode="&#x216;" horiz-adv-x="1223" 
d="M639 -33v245c155 9 162 136 162 403v1167h316v-1168c0 -337 -64 -638 -478 -647zM589 213v-246c-412 11 -483 312 -483 647v1168h317v-1167c0 -261 20 -387 166 -402zM516 1910h-158c2 164 119 253 258 253s256 -89 258 -253h-158c-5 69 -36 134 -100 134
s-95 -65 -100 -134z" />
    <glyph glyph-name="uni0217" unicode="&#x217;" horiz-adv-x="1223" 
d="M639 -33v245c155 9 162 136 162 403v1167h316v-1168c0 -337 -64 -638 -478 -647zM589 213v-246c-412 11 -483 312 -483 647v1168h317v-1167c0 -261 20 -387 166 -402zM516 1910h-158c2 164 119 253 258 253s256 -89 258 -253h-158c-5 69 -36 134 -100 134
s-95 -65 -100 -134z" />
    <glyph glyph-name="uni020B" unicode="&#x20b;" horiz-adv-x="548" 
d="M115 0v1782h317v-1782h-317zM177 1910h-158c2 164 119 253 258 253s256 -89 258 -253h-158c-5 69 -36 134 -100 134s-95 -65 -100 -134z" />
    <glyph glyph-name="uni020C" unicode="&#x20c;" 
d="M573 1815v-247c-136 -15 -165 -161 -165 -288v-780c0 -127 28 -272 165 -287v-246c-364 11 -481 277 -481 604v631c0 334 115 601 481 613zM623 1568v247c366 -12 483 -278 483 -613v-624c0 -327 -116 -599 -483 -611v246c138 15 166 158 166 287v780
c0 128 -29 273 -166 288zM704 1908l-213 413h255l130 -413h-172zM405 1908l-213 413h257l130 -413h-174z" />
    <glyph glyph-name="uni020D" unicode="&#x20d;" 
d="M573 1815v-247c-136 -15 -165 -161 -165 -288v-780c0 -127 28 -272 165 -287v-246c-364 11 -481 277 -481 604v631c0 334 115 601 481 613zM623 1568v247c366 -12 483 -278 483 -613v-624c0 -327 -116 -599 -483 -611v246c138 15 166 158 166 287v780
c0 128 -29 273 -166 288zM704 1908l-213 413h255l130 -413h-172zM405 1908l-213 413h257l130 -413h-174z" />
    <glyph glyph-name="uni020E" unicode="&#x20e;" 
d="M573 1815v-247c-136 -15 -165 -161 -165 -288v-780c0 -127 28 -272 165 -287v-246c-364 11 -481 277 -481 604v631c0 334 115 601 481 613zM623 1568v247c366 -12 483 -278 483 -613v-624c0 -327 -116 -599 -483 -611v246c138 15 166 158 166 287v780
c0 128 -29 273 -166 288zM500 1910h-158c2 164 119 253 258 253s256 -89 258 -253h-158c-5 69 -36 134 -100 134s-95 -65 -100 -134z" />
    <glyph glyph-name="uni020F" unicode="&#x20f;" 
d="M573 1815v-247c-136 -15 -165 -161 -165 -288v-780c0 -127 28 -272 165 -287v-246c-364 11 -481 277 -481 604v631c0 334 115 601 481 613zM623 1568v247c366 -12 483 -278 483 -613v-624c0 -327 -116 -599 -483 -611v246c138 15 166 158 166 287v780
c0 128 -29 273 -166 288zM500 1910h-158c2 164 119 253 258 253s256 -89 258 -253h-158c-5 69 -36 134 -100 134s-95 -65 -100 -134z" />
    </font>
</defs>
</svg>
